<?xml version="1.0" encoding="UTF-8"?>
<svg version="1.1" xmlns="http://www.w3.org/2000/svg" width="500" height="500">
<path d="M0 0 C1.69838167 -0.01655058 3.39669393 -0.04382919 5.09472656 -0.08203125 C7.54683456 -0.13689893 9.99731139 -0.15868748 12.44995117 -0.17333984 C13.20532669 -0.19600922 13.96070221 -0.21867859 14.7389679 -0.24203491 C18.76789624 -0.22595091 20.51881584 0.16819077 23.6875 2.74023438 C27.13712489 7.12038524 29.00234549 11.80772711 28.43041992 17.41259766 C28.20354492 18.05197266 27.97666992 18.69134766 27.74291992 19.35009766 C28.40291992 19.35009766 29.06291992 19.35009766 29.74291992 19.35009766 C30.44120123 22.80634535 31.12470359 26.26535128 31.80541992 29.72509766 C32.00458008 30.70994141 32.20374023 31.69478516 32.40893555 32.70947266 C32.68447266 34.12099609 32.68447266 34.12099609 32.96557617 35.56103516 C33.13839111 36.43034668 33.31120605 37.2996582 33.48925781 38.1953125 C33.74291992 40.35009766 33.74291992 40.35009766 32.74291992 42.35009766 C33.84728519 42.35156422 34.95165047 42.35303078 36.08948135 42.35454178 C62.93747328 42.39110576 89.78534015 42.45051453 116.6332283 42.5340004 C129.61657168 42.57384209 142.599854 42.6062085 155.58325195 42.62109375 C166.89706468 42.63408368 178.21074334 42.6609802 189.52448058 42.70471072 C195.51731882 42.72738536 201.50999133 42.74300474 207.50287628 42.74198151 C213.14013119 42.74123844 218.7770189 42.75904673 224.41417885 42.79126549 C226.48623036 42.79980491 228.55832287 42.80148721 230.63038445 42.79590034 C233.4539134 42.78929968 236.27626054 42.80708628 239.09967041 42.83111572 C240.33702419 42.8194751 240.33702419 42.8194751 241.59937501 42.80759931 C245.25077092 42.86282457 247.27874392 42.97149712 250.15812302 45.32003403 C250.681106 45.98995502 251.20408897 46.65987602 251.74291992 47.35009766 C252.40291992 47.68009766 253.06291992 48.01009766 253.74291992 48.35009766 C254.6719524 64.28128428 250.05920208 80.20256769 246.19213867 95.53369141 C245.65264043 97.71514081 245.16447635 99.90570853 244.68041992 102.10009766 C244.50381836 102.89931641 244.3272168 103.69853516 244.14526367 104.52197266 C244.01249023 105.12525391 243.8797168 105.72853516 243.74291992 106.35009766 C243.08291992 106.35009766 242.42291992 106.35009766 241.74291992 106.35009766 C242.07291992 107.67009766 242.40291992 108.99009766 242.74291992 110.35009766 C241.75291992 110.35009766 240.76291992 110.35009766 239.74291992 110.35009766 C240.40291992 110.68009766 241.06291992 111.01009766 241.74291992 111.35009766 C241.10104074 116.48513109 240.06019745 121.34444306 238.74291992 126.35009766 C238.08291992 126.35009766 237.42291992 126.35009766 236.74291992 126.35009766 C236.82541992 127.50509766 236.90791992 128.66009766 236.99291992 129.85009766 C236.99291992 141.82365674 232.88289249 155.47012758 224.74291992 164.35009766 C220.9929537 167.897363 217.74401445 169.16802077 212.74291992 170.35009766 C211.93854492 170.55634766 211.13416992 170.76259766 210.30541992 170.97509766 C209.78979492 171.09884766 209.27416992 171.22259766 208.74291992 171.35009766 C208.74291992 171.68009766 208.74291992 172.01009766 208.74291992 172.35009766 C199.83291992 172.35009766 190.92291992 172.35009766 181.74291992 172.35009766 C181.74291992 171.69009766 181.74291992 171.03009766 181.74291992 170.35009766 C180.75291992 170.35009766 179.76291992 170.35009766 178.74291992 170.35009766 C178.74291992 171.01009766 178.74291992 171.67009766 178.74291992 172.35009766 C164.22291992 172.35009766 149.70291992 172.35009766 134.74291992 172.35009766 C134.74291992 171.69009766 134.74291992 171.03009766 134.74291992 170.35009766 C134.08291992 170.35009766 133.42291992 170.35009766 132.74291992 170.35009766 C132.74291992 171.01009766 132.74291992 171.67009766 132.74291992 172.35009766 C124.16291992 172.35009766 115.58291992 172.35009766 106.74291992 172.35009766 C106.74291992 171.69009766 106.74291992 171.03009766 106.74291992 170.35009766 C106.08291992 170.35009766 105.42291992 170.35009766 104.74291992 170.35009766 C104.74291992 171.01009766 104.74291992 171.67009766 104.74291992 172.35009766 C98.80291992 172.35009766 92.86291992 172.35009766 86.74291992 172.35009766 C86.74291992 171.69009766 86.74291992 171.03009766 86.74291992 170.35009766 C86.08291992 170.35009766 85.42291992 170.35009766 84.74291992 170.35009766 C84.74291992 171.01009766 84.74291992 171.67009766 84.74291992 172.35009766 C76.49291992 172.35009766 68.24291992 172.35009766 59.74291992 172.35009766 C59.74291992 171.69009766 59.74291992 171.03009766 59.74291992 170.35009766 C58.75291992 170.35009766 57.76291992 170.35009766 56.74291992 170.35009766 C56.74291992 171.01009766 56.74291992 171.67009766 56.74291992 172.35009766 C56.08291992 172.35009766 55.42291992 172.35009766 54.74291992 172.35009766 C54.74291992 171.69009766 54.74291992 171.03009766 54.74291992 170.35009766 C52.43291992 170.68009766 50.12291992 171.01009766 47.74291992 171.35009766 C47.74291992 171.68009766 47.74291992 172.01009766 47.74291992 172.35009766 C45.43291992 172.68009766 43.12291992 173.01009766 40.74291992 173.35009766 C40.45416992 174.15447266 40.16541992 174.95884766 39.86791992 175.78759766 C38.74291992 178.35009766 38.74291992 178.35009766 36.74291992 179.35009766 C36.74291992 180.01009766 36.74291992 180.67009766 36.74291992 181.35009766 C37.40291992 181.68009766 38.06291992 182.01009766 38.74291992 182.35009766 C38.86666992 182.98947266 38.99041992 183.62884766 39.11791992 184.28759766 C39.54077506 186.54001574 39.54077506 186.54001574 41.74291992 187.47509766 C42.40291992 187.76384766 43.06291992 188.05259766 43.74291992 188.35009766 C44.07291992 189.01009766 44.40291992 189.67009766 44.74291992 190.35009766 C45.71844189 190.34641048 46.69396385 190.34272331 47.69904709 190.33892441 C71.41747581 190.25019157 95.13588305 190.18442576 118.8544426 190.14284897 C130.32448977 190.12220918 141.79442742 190.09406147 153.2644043 190.04833984 C163.25970508 190.00851551 173.25492655 189.98267516 183.25030446 189.97374368 C188.54456094 189.96852148 193.83859049 189.95621793 199.13277435 189.92717743 C204.11333929 189.90007794 209.09358327 189.8916416 214.07421494 189.89766693 C215.9044176 189.89656424 217.73463072 189.88857789 219.56476974 189.87327576 C222.05983276 189.85343303 224.55367707 189.85813702 227.04876709 189.86907959 C227.7763959 189.85742822 228.50402471 189.84577686 229.25370288 189.83377242 C232.67036242 189.87439732 234.4428144 190.11919006 237.18620682 192.2300148 C239.56713303 195.47259099 239.40908537 198.02082467 239.28198242 201.93212891 C238.65867493 204.72797919 237.925614 205.66997862 235.74291992 207.47509766 C234.75291992 208.09384766 233.76291992 208.71259766 232.74291992 209.35009766 C233.35780273 210.31109375 233.35780273 210.31109375 233.98510742 211.29150391 C239.9722365 220.90242164 242.2959083 229.46982778 240.31323242 240.80712891 C237.74719838 249.8516069 231.75179444 256.2181212 223.95385742 261.15869141 C216.35791638 265.25191052 208.20084777 265.39291136 199.74291992 264.35009766 C195.98434281 263.1839631 192.95922724 261.59763771 189.74291992 259.35009766 C188.79416992 258.69009766 187.84541992 258.03009766 186.86791992 257.35009766 C182.32364555 253.07313354 180.17561427 249.37103228 178.45385742 243.43603516 C177.75279828 241.08690785 177.75279828 241.08690785 175.74291992 238.35009766 C175.80151367 236.26416016 175.80151367 236.26416016 176.18041992 233.97509766 C176.58302607 231.15227958 176.74603719 229.36568399 176.18041992 226.53759766 C175.3478398 222.37469706 178.71198081 218.64480473 180.80541992 215.16259766 C181.59625977 213.84195313 181.59625977 213.84195313 182.40307617 212.49462891 C183.74291992 210.35009766 183.74291992 210.35009766 184.74291992 209.35009766 C151.08291992 209.02009766 117.42291992 208.69009766 82.74291992 208.35009766 C82.74291992 209.34009766 82.74291992 210.33009766 82.74291992 211.35009766 C83.34104492 211.57697266 83.93916992 211.80384766 84.55541992 212.03759766 C89.455681 214.9777543 90.70038482 220.5728942 92.17260742 225.79541016 C94.16133276 234.70380994 91.70532274 242.40513291 87.23120117 250.13916016 C83.34228863 255.91638981 78.224302 260.8136238 71.55541992 263.10009766 C69.74291992 263.35009766 69.74291992 263.35009766 67.74291992 262.35009766 C67.74291992 263.01009766 67.74291992 263.67009766 67.74291992 264.35009766 C65.22141782 264.43182702 62.70262075 264.49093139 60.18041992 264.53759766 C59.12371094 264.57530273 59.12371094 264.57530273 58.0456543 264.61376953 C50.4063285 264.71938233 44.85457908 261.96779568 38.74291992 257.35009766 C36.68041992 254.97509766 36.68041992 254.97509766 34.74291992 252.35009766 C33.87666992 251.40134766 33.01041992 250.45259766 32.11791992 249.47509766 C26.84244656 242.53368534 27.28682597 234.72949819 27.74291992 226.35009766 C28.24922108 222.93762788 29.1253585 220.17501156 30.68041992 217.10009766 C31.01944336 216.41431641 31.3584668 215.72853516 31.70776367 215.02197266 C32.74291992 213.35009766 32.74291992 213.35009766 34.74291992 212.35009766 C35.87642526 210.33339938 35.87642526 210.33339938 36.74291992 208.35009766 C36.08291992 207.99947266 35.42291992 207.64884766 34.74291992 207.28759766 C27.5208121 202.62331969 20.05250395 196.68917102 17.93041992 188.03759766 C17.86854492 186.82072266 17.80666992 185.60384766 17.74291992 184.35009766 C17.69264648 183.56376953 17.64237305 182.77744141 17.59057617 181.96728516 C17.23511704 172.66847431 19.92533023 166.57562081 25.77416992 159.40087891 C30.60045428 154.37349937 35.87374527 151.51594242 42.84765625 151.21701908 C44.07766357 151.21316417 45.3076709 151.20930925 46.57495117 151.20533752 C47.2615834 151.20181068 47.94821564 151.19828383 48.65565491 151.19465011 C50.95558343 151.18397866 53.25547051 151.18028489 55.55541992 151.17651367 C57.204673 151.17020733 58.85392437 151.16344144 60.50317383 151.15625 C64.05427699 151.14158767 67.60537362 151.12985998 71.15649414 151.1203022 C76.76996954 151.10485013 82.38338858 151.08090225 87.99682617 151.05540466 C103.95902956 150.98419705 119.92126483 150.92436855 135.88354492 150.87329102 C144.69963879 150.84500545 153.51567616 150.80963685 162.33171082 150.76663727 C167.91366983 150.73984103 173.49556496 150.72195081 179.07757568 150.71060002 C182.54783163 150.70148451 186.01800977 150.6841281 189.48822021 150.66442108 C191.09908833 150.65693801 192.70997638 150.65286407 194.32086182 150.65242577 C196.51769231 150.65134523 198.71412589 150.6381159 200.91088867 150.62184143 C202.140896 150.61760949 203.37090332 150.61337755 204.63818359 150.60901737 C207.62383046 150.36002913 209.33591418 150.10935725 211.74291992 148.35009766 C212.50806192 145.77402113 213.02956995 143.48144412 213.43041992 140.85009766 C214.67671229 133.48251291 214.67671229 133.48251291 215.74291992 131.35009766 C216.40291992 131.35009766 217.06291992 131.35009766 217.74291992 131.35009766 C217.68104492 130.13322266 217.61916992 128.91634766 217.55541992 127.66259766 C217.53416679 120.98911404 218.73886784 113.35820182 221.74291992 107.35009766 C221.96570656 105.98037237 222.14973043 104.60406177 222.30541992 103.22509766 C222.44979492 101.94634766 222.59416992 100.66759766 222.74291992 99.35009766 C223.40291992 99.35009766 224.06291992 99.35009766 224.74291992 99.35009766 C224.51604492 98.69009766 224.28916992 98.03009766 224.05541992 97.35009766 C223.69316336 93.87243463 224.64516327 91.7312597 225.97338867 88.55322266 C227.24565895 84.91078389 227.48582824 81.17987717 227.74291992 77.35009766 C228.73291992 77.35009766 229.72291992 77.35009766 230.74291992 77.35009766 C230.08291992 77.02009766 229.42291992 76.69009766 228.74291992 76.35009766 C228.74291992 75.36009766 228.74291992 74.37009766 228.74291992 73.35009766 C229.73291992 73.35009766 230.72291992 73.35009766 231.74291992 73.35009766 C231.55729492 72.21572266 231.37166992 71.08134766 231.18041992 69.91259766 C231.03604492 68.73697266 230.89166992 67.56134766 230.74291992 66.35009766 C231.07291992 66.02009766 231.40291992 65.69009766 231.74291992 65.35009766 C230.43056177 65.34678751 229.11820362 65.34347736 227.76607704 65.34006691 C196.64020356 65.26111473 165.51437811 65.17191987 134.38857166 65.07004604 C130.56072445 65.0575266 126.73287696 65.04509391 122.9050293 65.03271484 C122.14294715 65.03024885 121.380865 65.02778286 120.59568946 65.02524213 C108.24275379 64.98547681 95.88980893 64.95274621 83.53684647 64.92259784 C70.8693701 64.89152594 58.20193287 64.85293497 45.53450048 64.8073076 C37.71280807 64.779373 29.89114443 64.75736163 22.06941544 64.74283515 C16.08006816 64.73108481 10.09080691 64.70889272 4.10150337 64.68271446 C1.63836634 64.6736056 -0.82478606 64.66794081 -3.28793907 64.66588402 C-6.63733092 64.66258475 -9.98644839 64.64717116 -13.33578491 64.62857056 C-14.32215104 64.63050529 -15.30851718 64.63244003 -16.32477319 64.63443339 C-17.66314515 64.62323515 -17.66314515 64.62323515 -19.02855492 64.61181068 C-19.80242495 64.60953236 -20.57629498 64.60725404 -21.37361562 64.60490668 C-23.25708008 64.35009766 -23.25708008 64.35009766 -25.25708008 62.35009766 C-25.91708008 62.02009766 -26.57708008 61.69009766 -27.25708008 61.35009766 C-27.25708008 60.69009766 -27.25708008 60.03009766 -27.25708008 59.35009766 C-28.24708008 59.02009766 -29.23708008 58.69009766 -30.25708008 58.35009766 C-31.80732472 55.24960837 -31.54700023 52.77115548 -31.25708008 49.35009766 C-29.46145603 46.59680745 -28.20453086 44.82382305 -25.25708008 43.35009766 C-22.41278651 43.26318765 -19.59328832 43.23455964 -16.74926758 43.25244141 C-15.48833786 43.25456383 -15.48833786 43.25456383 -14.20193481 43.25672913 C-11.51194733 43.26233528 -8.82204249 43.27488879 -6.13208008 43.28759766 C-4.3104667 43.29261186 -2.48885201 43.29717491 -0.66723633 43.30126953 C3.80284769 43.31230671 8.27286979 43.32957546 12.74291992 43.35009766 C12.55729492 42.54572266 12.37166992 41.74134766 12.18041992 40.91259766 C12.03604492 40.06697266 11.89166992 39.22134766 11.74291992 38.35009766 C12.07291992 38.02009766 12.40291992 37.69009766 12.74291992 37.35009766 C11.75291992 36.85509766 11.75291992 36.85509766 10.74291992 36.35009766 C10.14526367 34.49462891 10.14526367 34.49462891 9.68041992 32.16259766 C9.52444336 31.40591797 9.3684668 30.64923828 9.20776367 29.86962891 C8.6848055 27.03510772 8.20808946 24.19462997 7.74291992 21.35009766 C7.13295166 21.36580811 6.5229834 21.38151855 5.89453125 21.39770508 C3.11492282 21.46029579 0.33546301 21.49916388 -2.44458008 21.53759766 C-3.40428711 21.56273437 -4.36399414 21.58787109 -5.3527832 21.61376953 C-14.21106174 21.70572398 -14.21106174 21.70572398 -18.25708008 18.35009766 C-20.90599343 15.70118431 -22.11223185 14.10652728 -22.81958008 10.41259766 C-22.03298053 6.13000011 -20.28821134 4.45339871 -17.25708008 1.35009766 C-12.4923476 -1.03226858 -5.2964941 0.03784306 0 0 Z M26.74291992 15.35009766 C27.74291992 17.35009766 27.74291992 17.35009766 27.74291992 17.35009766 Z M8.74291992 20.35009766 C9.74291992 23.35009766 9.74291992 23.35009766 9.74291992 23.35009766 Z M-30.25708008 50.35009766 C-30.25708008 52.33009766 -30.25708008 54.31009766 -30.25708008 56.35009766 C-29.92708008 56.35009766 -29.59708008 56.35009766 -29.25708008 56.35009766 C-29.25708008 54.37009766 -29.25708008 52.39009766 -29.25708008 50.35009766 C-29.58708008 50.35009766 -29.91708008 50.35009766 -30.25708008 50.35009766 Z M248.74291992 73.35009766 C249.74291992 76.35009766 249.74291992 76.35009766 249.74291992 76.35009766 Z M225.74291992 90.35009766 C226.74291992 94.35009766 226.74291992 94.35009766 226.74291992 94.35009766 Z M59.74291992 218.35009766 C59.74291992 219.01009766 59.74291992 219.67009766 59.74291992 220.35009766 C58.87666992 220.22634766 58.01041992 220.10259766 57.11791992 219.97509766 C53.04247201 220.4279252 51.63407007 221.46106176 48.93823242 224.43212891 C46.46483461 228.4008816 46.34844974 232.95697854 47.09448242 237.48291016 C48.13677663 240.48421517 50.14375464 241.65761794 52.74291992 243.35009766 C54.06291992 243.35009766 55.38291992 243.35009766 56.74291992 243.35009766 C56.74291992 244.01009766 56.74291992 244.67009766 56.74291992 245.35009766 C62.05929789 245.85641937 64.56809795 244.59718141 68.74291992 241.35009766 C69.36166992 240.89634766 69.98041992 240.44259766 70.61791992 239.97509766 C72.33053241 237.50132407 71.93744533 235.26797871 71.74291992 232.35009766 C72.40291992 232.02009766 73.06291992 231.69009766 73.74291992 231.35009766 C73.08291992 231.35009766 72.42291992 231.35009766 71.74291992 231.35009766 C71.82541992 230.62822266 71.90791992 229.90634766 71.99291992 229.16259766 C71.65323413 225.34113253 70.54724301 223.93870358 67.74291992 221.35009766 C64.13268893 220.61967912 64.13268893 220.61967912 60.74291992 220.35009766 C60.41291992 219.69009766 60.08291992 219.03009766 59.74291992 218.35009766 Z M205.74291992 218.35009766 C205.74291992 219.01009766 205.74291992 219.67009766 205.74291992 220.35009766 C204.66010742 220.38103516 204.66010742 220.38103516 203.55541992 220.41259766 C199.39354677 221.79988871 197.68304666 224.50758984 195.74291992 228.35009766 C195.10545593 230.75570996 194.89613231 232.84762857 194.74291992 235.35009766 C195.40291992 235.35009766 196.06291992 235.35009766 196.74291992 235.35009766 C197.01104492 236.09259766 197.27916992 236.83509766 197.55541992 237.60009766 C198.73242436 240.32579214 199.72659201 242.18005864 201.74291992 244.35009766 C204.1684971 245.04604638 204.1684971 245.04604638 206.80541992 245.10009766 C207.68327148 245.15681641 208.56112305 245.21353516 209.46557617 245.27197266 C213.21404099 245.54859496 213.21404099 245.54859496 216.30541992 243.16259766 C218.80539571 240.27801021 219.23582502 239.00118093 219.74291992 235.35009766 C220.40291992 235.02009766 221.06291992 234.69009766 221.74291992 234.35009766 C220.17195772 227.53808495 220.17195772 227.53808495 216.49291992 221.72509766 C213.06342408 220.01034974 210.52754194 220.05326456 206.74291992 220.35009766 C206.41291992 219.69009766 206.08291992 219.03009766 205.74291992 218.35009766 Z M221.74291992 230.35009766 C222.74291992 234.35009766 222.74291992 234.35009766 222.74291992 234.35009766 Z " fill="#FE674E" transform="translate(138.257080078125,117.64990234375)"/>
<path d="M0 0 C0.8103923 -0.00700928 1.62078461 -0.01401855 2.45573425 -0.02124023 C5.12717236 -0.03880509 7.79754577 -0.02720213 10.46899414 -0.01367188 C12.330777 -0.01636749 14.1925585 -0.0202505 16.05433655 -0.02526855 C19.95400411 -0.03116177 23.85330482 -0.02260735 27.75292969 -0.00390625 C32.74431838 0.01886737 37.73484596 0.00576925 42.72620296 -0.01819611 C46.57046457 -0.03267241 50.41452314 -0.02803942 54.25879097 -0.01768494 C56.0987413 -0.01502189 57.93871024 -0.01827253 59.77863884 -0.02760315 C62.35422217 -0.03779729 64.92842533 -0.02222789 67.50390625 0 C68.63795898 -0.01214539 68.63795898 -0.01214539 69.79492188 -0.02453613 C74.9355022 0.05738139 77.87056328 1.25349567 81.81665039 4.51757812 C84.2640522 8.18868084 84.53237657 11.24909066 83.81665039 15.51757812 C81.72157811 18.26284525 79.69845032 19.59637817 76.81665039 21.51757812 C74.08925952 21.71210541 71.46436778 21.79056518 68.73681641 21.77636719 C67.91375 21.77987183 67.09068359 21.78337646 66.24267578 21.7869873 C63.51855058 21.79579858 60.79468455 21.78995707 58.07055664 21.78320312 C56.17870534 21.78455008 54.28685438 21.78649086 52.39500427 21.78900146 C48.42801623 21.79195202 44.46111821 21.78765776 40.49414062 21.77832031 C35.40855767 21.76693362 30.32318599 21.77348073 25.23761082 21.78546524 C21.32999581 21.79269233 17.42243089 21.79039186 13.51481438 21.78520966 C11.63971876 21.78387511 9.76461859 21.78551407 7.88952827 21.79016876 C5.26818935 21.79524703 2.64719236 21.7875051 0.02587891 21.77636719 C-0.74983963 21.78041565 -1.52555817 21.78446411 -2.32478333 21.78863525 C-6.07890303 21.75908066 -9.03837565 21.6968219 -12.18334961 19.51757812 C-14.58256733 16.44450604 -16.18334961 13.47819422 -16.18334961 9.51757812 C-15.52334961 9.18757812 -14.86334961 8.85757813 -14.18334961 8.51757812 C-14.08022461 7.91945312 -13.97709961 7.32132813 -13.87084961 6.70507812 C-11.83800784 0.23694523 -5.84386271 -0.062419 0 0 Z " fill="#FE654C" transform="translate(126.183349609375,231.482421875)"/>
<path d="M0 0 C0.83921494 -0.01139008 1.67842987 -0.02278015 2.54307556 -0.03451538 C11.31943195 -0.14511249 20.09662875 -0.1925862 28.87353516 -0.23535156 C33.03899262 -0.25763761 37.20355568 -0.29942102 41.36865234 -0.35839844 C46.39609531 -0.42944925 51.42269567 -0.46617783 56.45061493 -0.47846985 C58.36602783 -0.48887637 60.28141494 -0.51131479 62.19654083 -0.54606628 C64.88072439 -0.59225591 67.56160109 -0.59427587 70.24609375 -0.5859375 C71.03489426 -0.60953339 71.82369476 -0.63312927 72.63639832 -0.65744019 C75.9862652 -0.6071605 78.06438282 -0.42559147 80.73543549 1.69895935 C83.75155708 5.01895866 84.81866822 6.56134838 85.25683594 11.16210938 C85.07121094 12.67804688 85.07121094 12.67804688 84.88183594 14.22460938 C84.22183594 14.22460938 83.56183594 14.22460938 82.88183594 14.22460938 C82.59308594 14.84335938 82.30433594 15.46210938 82.00683594 16.09960938 C80.88183594 18.22460938 80.88183594 18.22460938 78.88183594 20.22460938 C76.0803408 20.41274758 73.37847591 20.47635947 70.57666016 20.45166016 C69.71805389 20.45195221 68.85944763 20.45224426 67.974823 20.45254517 C65.12862136 20.4511486 62.2826795 20.4355721 59.43652344 20.41992188 C57.4664016 20.41619291 55.49627792 20.41334539 53.52615356 20.41134644 C48.33440046 20.40370084 43.1427588 20.38404441 37.9510498 20.36193848 C32.65585844 20.34149997 27.36064911 20.332349 22.06542969 20.32226562 C11.6708494 20.30079938 1.27635193 20.26665229 -9.11816406 20.22460938 C-9.11816406 19.56460938 -9.11816406 18.90460938 -9.11816406 18.22460938 C-9.73691406 18.14210937 -10.35566406 18.05960938 -10.99316406 17.97460938 C-13.11816406 17.22460938 -13.11816406 17.22460938 -14.36816406 15.53710938 C-15.36302273 12.46962847 -15.5684724 10.44109748 -15.11816406 7.22460938 C-11.01074643 0.64357964 -7.31408755 0.06793742 0 0 Z " fill="#FD6B51" transform="translate(162.1181640625,196.775390625)"/>
<path d="M0 0 C84.15 0 168.3 0 255 0 C254.67 0.99 254.34 1.98 254 3 C170.18 3 86.36 3 0 3 C0 2.01 0 1.02 0 0 Z " fill="#FF8375" transform="translate(115,179)"/>
<path d="M0 0 C0.33 0.66 0.66 1.32 1 2 C71.62 2.33 142.24 2.66 215 3 C215 3.66 215 4.32 215 5 C144.05 5 73.1 5 0 5 C0 3.35 0 1.7 0 0 Z " fill="#FEBC8E" transform="translate(170,158)"/>
<path d="M0 0 C54.12 0 108.24 0 164 0 C164 0.99 164 1.98 164 3 C155.09 3 146.18 3 137 3 C137 2.34 137 1.68 137 1 C136.01 1 135.02 1 134 1 C134 1.66 134 2.32 134 3 C119.48 3 104.96 3 90 3 C90 2.34 90 1.68 90 1 C89.34 1 88.68 1 88 1 C88 1.66 88 2.32 88 3 C79.42 3 70.84 3 62 3 C62 2.34 62 1.68 62 1 C61.34 1 60.68 1 60 1 C60 1.66 60 2.32 60 3 C54.06 3 48.12 3 42 3 C42 2.34 42 1.68 42 1 C41.34 1 40.68 1 40 1 C40 1.66 40 2.32 40 3 C31.75 3 23.5 3 15 3 C15 2.34 15 1.68 15 1 C14.01 1 13.02 1 12 1 C12 1.66 12 2.32 12 3 C11.34 3 10.68 3 10 3 C10 2.34 10 1.68 10 1 C6.7 1 3.4 1 0 1 C0 0.67 0 0.34 0 0 Z " fill="#FF937F" transform="translate(183,287)"/>
<path d="M0 0 C2.28030304 1.71022728 3.7979461 3.05190092 4.40625 5.90625 C4.57001521 9.56367292 4.45400722 11.40509399 2.1875 14.375 C-2.47250673 17.83671928 -5.44840737 18.28367394 -11.11157227 18.24291992 C-11.93785126 18.24481827 -12.76413025 18.24671661 -13.615448 18.24867249 C-16.34919698 18.25238004 -19.08268085 18.24167701 -21.81640625 18.23046875 C-23.71304798 18.2292769 -25.60969031 18.2288238 -27.5063324 18.2290802 C-31.48171685 18.22751541 -35.45701124 18.2192255 -39.43237305 18.20581055 C-44.53604078 18.18880918 -49.63960961 18.18499654 -54.74330235 18.18575573 C-58.65940806 18.18548423 -62.57549201 18.1800065 -66.4915905 18.17275429 C-68.3739194 18.16956542 -70.25625077 18.16759971 -72.13858223 18.16686058 C-74.7650386 18.16469998 -77.39138862 18.15596214 -80.01782227 18.14526367 C-80.80073135 18.14571686 -81.58364044 18.14617004 -82.39027405 18.14663696 C-87.7710432 18.1144784 -87.7710432 18.1144784 -90 17 C-89.505 15.515 -89.505 15.515 -89 14 C-87.92924728 14.00666183 -86.85849457 14.01332367 -85.7552948 14.02018738 C-75.67570255 14.08094224 -65.59614734 14.12594556 -55.51641369 14.15543652 C-50.33402578 14.17110769 -45.15178541 14.19237248 -39.96948242 14.22631836 C-34.97040159 14.25886 -29.97146287 14.27684207 -24.97228432 14.28463173 C-23.06284662 14.29018459 -21.1534169 14.30102768 -19.24403954 14.31719017 C-16.57422308 14.33889546 -13.90499758 14.34196984 -11.23510742 14.34057617 C-10.44172974 14.351362 -9.64835205 14.36214783 -8.83093262 14.3732605 C-4.68228757 14.37152837 -4.68228757 14.37152837 -1.00093079 12.66230774 C0.8977503 9.50905049 0.27591169 6.13430363 -0.5625 2.6875 C-0.7790625 1.8521875 -0.7790625 1.8521875 -1 1 C-0.67 0.67 -0.34 0.34 0 0 Z " fill="#FC774F" transform="translate(206,235)"/>
<path d="M0 0 C10.88311581 -0.06948078 21.76617893 -0.12280153 32.64947128 -0.15543652 C37.70291726 -0.17109891 42.75621161 -0.19234774 47.80957031 -0.22631836 C52.68546288 -0.25889122 57.56120949 -0.27684869 62.43720245 -0.28463173 C64.29836576 -0.29017896 66.159521 -0.30101123 68.02062225 -0.31719017 C70.62557803 -0.33893693 73.22992913 -0.34196809 75.83496094 -0.34057617 C76.60604187 -0.351362 77.3771228 -0.36214783 78.17156982 -0.3732605 C82.39279321 -0.34882052 84.94549949 -0.03200506 88 3 C84.83366159 4.5831692 81.44240991 4.0788004 77.97021484 4.02172852 C77.14086929 4.01212097 76.31152374 4.00251343 75.45704651 3.99261475 C72.70825885 3.95956144 69.959627 3.91925328 67.2109375 3.87890625 C65.30808059 3.85461132 63.40521786 3.83076745 61.50234985 3.80735779 C56.48813269 3.74445447 51.47401805 3.67540555 46.4598999 3.60510254 C41.34571003 3.53447546 36.23144732 3.46962485 31.1171875 3.40429688 C21.07804496 3.27520403 11.03900122 3.13962257 1 3 C0.67 2.01 0.34 1.02 0 0 Z " fill="#FE8578" transform="translate(118,232)"/>
<path d="M0 0 C0.99 0.33 1.98 0.66 3 1 C0.25 6.875 0.25 6.875 -2 8 C-2 8.66 -2 9.32 -2 10 C-1.34 10.33 -0.68 10.66 0 11 C0.12375 11.639375 0.2475 12.27875 0.375 12.9375 C0.79785514 15.18991809 0.79785514 15.18991809 3 16.125 C3.99 16.558125 3.99 16.558125 5 17 C5.33 17.66 5.66 18.32 6 19 C68.04 19.33 130.08 19.66 194 20 C194 20.33 194 20.66 194 21 C169.44383524 21.0700473 144.88768543 21.1229672 120.33144093 21.15543652 C108.92982966 21.17091256 97.52828043 21.19201621 86.12670898 21.22631836 C76.19036257 21.25619809 66.25406109 21.27556964 56.317671 21.28226548 C51.05528401 21.28618015 45.79302555 21.29539555 40.5306797 21.31719017 C35.5788756 21.33753274 30.62725314 21.34383829 25.67541122 21.33932304 C23.85692419 21.34014924 22.03843117 21.34612813 20.21998024 21.35761642 C17.73857744 21.37252573 15.25786193 21.36895947 12.77644348 21.36076355 C12.05561846 21.36950207 11.33479344 21.3782406 10.59212524 21.38724393 C4.81589704 21.33561835 1.75707805 19.70958945 -2.3125 15.75 C-4.49381184 12.19526959 -4.51379023 10.11032181 -4 6 C-2.84360194 3.68720389 -1.82590172 1.82590172 0 0 Z " fill="#FD7558" transform="translate(177,289)"/>
<path d="M0 0 C35.97 0 71.94 0 109 0 C108.67 1.65 108.34 3.3 108 5 C105.9375 6.3125 105.9375 6.3125 104 7 C104.66 5.68 105.32 4.36 106 3 C92.75266738 2.97685877 79.50533954 2.95907579 66.25799084 2.94818783 C60.10712662 2.94296292 53.9562762 2.93587233 47.80541992 2.92456055 C41.87267737 2.91371782 35.93994812 2.9077202 30.00719643 2.90512276 C27.74052025 2.90327102 25.47384483 2.89965519 23.2071743 2.89426994 C20.03938584 2.88704118 16.87165276 2.88600984 13.70385742 2.88647461 C12.76086792 2.88287933 11.81787842 2.87928406 10.84631348 2.87557983 C9.98394577 2.8769545 9.12157806 2.87832916 8.233078 2.87974548 C7.48366031 2.87882369 6.73424261 2.8779019 5.96211529 2.87695217 C3.78483417 2.92937153 3.78483417 2.92937153 1 4 C0.34 3.67 -0.32 3.34 -1 3 C-0.67 2.01 -0.34 1.02 0 0 Z " fill="#F57157" transform="translate(217,324)"/>
<path d="M0 0 C-0.33 0.99 -0.66 1.98 -1 3 C-30.37 3 -59.74 3 -90 3 C-90 2.34 -90 1.68 -90 1 C-80.77560388 0.86819794 -71.55119019 0.73772049 -62.32675266 0.60884857 C-58.04163777 0.54894268 -53.7565298 0.48861201 -49.47143555 0.42724609 C-45.3217046 0.36783539 -41.17195827 0.30962461 -37.02219963 0.25218201 C-35.4536983 0.23027155 -33.88520254 0.20795752 -32.31671333 0.18519592 C-21.54370104 0.02922352 -10.77412443 -0.02673704 0 0 Z " fill="#FF8080" transform="translate(370,179)"/>
<path d="M0 0 C-0.33 0.99 -0.66 1.98 -1 3 C-8.95795467 4.32170157 -16.92415175 4.09138948 -24.96289062 4.02172852 C-26.57981087 4.01157309 -28.19673408 4.00188081 -29.81365967 3.99261475 C-34.18498845 3.96626024 -38.55624749 3.93345559 -42.92752266 3.89946485 C-47.50256054 3.8649959 -52.07763559 3.83649786 -56.65270996 3.80735779 C-65.3081383 3.75132584 -73.9635201 3.68994889 -82.61889791 3.62663645 C-92.47618425 3.55479365 -102.33350774 3.48893256 -112.19083881 3.42356598 C-132.46060748 3.28901816 -152.73031795 3.14698426 -173 3 C-172.01 3.99 -171.02 4.98 -170 6 C-171.32 6 -172.64 6 -174 6 C-174.33 5.01 -174.66 4.02 -175 3 C-173.14049386 1.14049386 -170.04343933 1.85894457 -167.55996704 1.84851074 C-166.87927607 1.84427833 -166.1985851 1.84004592 -165.49726713 1.83568525 C-163.19951064 1.82259241 -160.9017889 1.81661921 -158.60400391 1.81054688 C-156.9634225 1.80260966 -155.32284321 1.79422213 -153.68226624 1.78541565 C-150.14093259 1.76731958 -146.59960375 1.7523179 -143.05824661 1.73963928 C-137.4620895 1.71946913 -131.86598514 1.69180924 -126.26986694 1.66296387 C-114.38826931 1.60278812 -102.50664002 1.55100032 -90.625 1.5 C-77.80667718 1.44495585 -64.98837035 1.38847884 -52.17009866 1.32245111 C-46.60376694 1.29406414 -41.03744145 1.27048118 -35.47107339 1.25052643 C-32.01072146 1.23715501 -28.55039853 1.21974134 -25.09007072 1.20121574 C-23.48200526 1.19344866 -21.87393055 1.18738392 -20.26585197 1.18312263 C-18.07518514 1.17708976 -15.8846315 1.16504805 -13.69400024 1.15148926 C-11.8528234 1.14375866 -11.8528234 1.14375866 -9.97445107 1.13587189 C-6.41060754 0.97307676 -3.63391645 0 0 0 Z " fill="#FC775A" transform="translate(356,284)"/>
<path d="M0 0 C62.04 0 124.08 0 188 0 C188 0.33 188 0.66 188 1 C125.96 1 63.92 1 0 1 C0 0.67 0 0.34 0 0 Z " fill="#FF7F7F" transform="translate(183,307)"/>
<path d="M0 0 C0.99 0.495 0.99 0.495 2 1 C1.67 1.99 1.34 2.98 1 4 C-54.44 4 -109.88 4 -167 4 C-167 3.67 -167 3.34 -167 3 C-166.15147776 2.99668985 -165.30295551 2.99337971 -164.42872047 2.98996925 C-143.80696722 2.90884047 -123.18528822 2.81678155 -102.56363869 2.71247292 C-92.59126961 2.66229571 -82.61890896 2.61585349 -72.64648438 2.578125 C-63.95714927 2.54524141 -55.26787863 2.50543052 -46.57861459 2.45720994 C-41.97534155 2.43190869 -37.37211148 2.41013824 -32.76878738 2.39665604 C-28.43993348 2.38386843 -24.11122668 2.36185016 -19.78245354 2.33261681 C-18.19010313 2.32351508 -16.59772902 2.31784479 -15.00535393 2.31578636 C-12.83824933 2.31248201 -10.67156648 2.2970552 -8.50454712 2.2784729 C-6.68216239 2.27017676 -6.68216239 2.27017676 -4.82296181 2.26171303 C-1.86472425 2.29059922 -1.86472425 2.29059922 0 0 Z " fill="#FB795D" transform="translate(346,268)"/>
<path d="M0 0 C0.99 0.33 1.98 0.66 3 1 C5.72199376 1.1200408 8.42032241 1.18533308 11.14331055 1.20532227 C11.97280212 1.21522186 12.8022937 1.22512146 13.65692139 1.23532104 C16.40015809 1.26692205 19.14341211 1.29168798 21.88671875 1.31640625 C23.78815665 1.33697698 25.68958999 1.35797349 27.59101868 1.37937927 C32.59689644 1.43458761 37.60281538 1.48400238 42.60876465 1.53222656 C47.71642728 1.5824506 52.82403007 1.63813196 57.93164062 1.69335938 C67.95437596 1.80092582 77.97716325 1.90237419 88 2 C88 2.33 88 2.66 88 3 C86.39720184 3.01213028 86.39720184 3.01213028 84.76202393 3.02450562 C74.69732047 3.10195465 64.6327524 3.18969087 54.56822586 3.28752708 C49.39381853 3.33749556 44.21943167 3.38382563 39.04492188 3.421875 C34.05222939 3.45872072 29.05970795 3.50507888 24.06716156 3.55806351 C22.16139472 3.57661122 20.25559122 3.59171779 18.34976959 3.60334396 C15.68254543 3.62019987 13.01571329 3.64923339 10.34863281 3.68115234 C9.5588504 3.68331253 8.76906799 3.68547272 7.95535278 3.68769836 C2.66091514 3.75325306 2.66091514 3.75325306 -2 6 C-2.33 6.66 -2.66 7.32 -3 8 C-3.75 6.25 -3.75 6.25 -4 4 C-2.0625 1.75 -2.0625 1.75 0 0 Z " fill="#FA7254" transform="translate(116,233)"/>
<path d="M0 0 C2 3 2 3 2 9 C-11.2 9 -24.4 9 -38 9 C-38 8.34 -38 7.68 -38 7 C-25.79 7 -13.58 7 -1 7 C-1.495 4.525 -1.495 4.525 -2 2 C-1.34 2 -0.68 2 0 2 C0 1.34 0 0.68 0 0 Z " fill="#FEAE81" transform="translate(152,154)"/>
<path d="M0 0 C2.64 0 5.28 0 8 0 C8 0.66 8 1.32 8 2 C8.721875 1.7525 9.44375 1.505 10.1875 1.25 C13 1 13 1 15.625 2.4375 C18.61419804 5.66268736 20.07412273 8.7103851 21 13 C20.6875 16 20.6875 16 20 18 C19.67 17.34 19.34 16.68 19 16 C18.34 15.67 17.68 15.34 17 15 C16.06103521 11.88967915 15.20178058 8.7667662 14.375 5.625 C12.93718522 3.59971846 12.93718522 3.59971846 9.3125 3.125 C3.7343514 2.68968169 -1.15298773 4.28567313 -6 7 C-5.34 5.35 -4.68 3.7 -4 2 C-2.68 2 -1.36 2 0 2 C0 1.34 0 0.68 0 0 Z " fill="#FD7A5B" transform="translate(193,335)"/>
<path d="M0 0 C0.66 1.32 1.32 2.64 2 4 C-3.0191955 11.75514913 -9.18440177 16.9741841 -18 20 C-20.3125 19.625 -20.3125 19.625 -22 19 C-21.34 19 -20.68 19 -20 19 C-19.67 18.01 -19.34 17.02 -19 16 C-16.06610222 14.37548171 -13.04267172 13.06043587 -9.98046875 11.6953125 C-5.11927592 8.93023034 -2.72252773 4.76442352 0 0 Z " fill="#FC765B" transform="translate(373,362)"/>
<path d="M0 0 C0.99 0 1.98 0 3 0 C2.42350156 9.03180883 -1.99173278 15.47155783 -8.3515625 21.6875 C-10 23 -10 23 -13 24 C-12.42655063 21.13275314 -12.1385485 20.1385485 -10 18 C-9.01 18 -8.02 18 -7 18 C-6.8453125 17.1646875 -6.8453125 17.1646875 -6.6875 16.3125 C-6 14 -6 14 -4.625 11.8125 C-2.45675131 8.05976188 -1.26830752 4.12874576 0 0 Z " fill="#FC6E52" transform="translate(227,354)"/>
<path d="M0 0 C7.59 0 15.18 0 23 0 C22.01 0.495 22.01 0.495 21 1 C21 1.66 21 2.32 21 3 C14.07 3 7.14 3 0 3 C0 2.01 0 1.02 0 0 Z " fill="#FE867A" transform="translate(125,136)"/>
<path d="M0 0 C0.99 0 1.98 0 3 0 C0.10933941 16.8929385 0.10933941 16.8929385 -3 24 C-4.125 22.3125 -4.125 22.3125 -5 20 C-4.37943989 18.31562256 -3.70710678 16.64991582 -3 15 C-2.83242243 11.79129767 -2.83242243 11.79129767 -3 9 C-2.01 9 -1.02 9 0 9 C-0.66 8.67 -1.32 8.34 -2 8 C-2 7.01 -2 6.02 -2 5 C-1.01 5 -0.02 5 1 5 C0.67 3.35 0.34 1.7 0 0 Z " fill="#F97551" transform="translate(369,186)"/>
<path d="M0 0 C4.19469571 0.59924224 8.00999834 1.57499941 12 3 C10.63629701 5.99220268 9.05091917 8.29026529 6.875 10.75 C6.06675781 11.67039062 6.06675781 11.67039062 5.2421875 12.609375 C4.62730469 13.29773438 4.62730469 13.29773438 4 14 C3.01 13.67 2.02 13.34 1 13 C2.60088848 10.59866729 4.25728062 8.297221 6 6 C3.9927092 2.9890638 3.16115776 2.36983503 0 1 C0 0.67 0 0.34 0 0 Z " fill="#FD7C5D" transform="translate(169,321)"/>
<path d="M0 0 C0.99 0 1.98 0 3 0 C4.125 5.75 4.125 5.75 3 8 C3.66 8 4.32 8 5 8 C5.66 12.62 6.32 17.24 7 22 C6.01 22 5.02 22 4 22 C2.71428571 13.42857143 2.71428571 13.42857143 4 10 C3.01 9.67 2.02 9.34 1 9 C0.67 6.03 0.34 3.06 0 0 Z M2 4 C3 6 3 6 3 6 Z " fill="#FC7E5C" transform="translate(163,129)"/>
<path d="M0 0 C0.66 0 1.32 0 2 0 C2 0.66 2 1.32 2 2 C3.43049683 1.95456055 3.43049683 1.95456055 4.88989258 1.90820312 C8.42894012 1.79591069 11.96800701 1.68423869 15.50708008 1.57275391 C17.03866095 1.52442063 18.57023653 1.47591922 20.10180664 1.42724609 C22.30353445 1.35730466 24.50528061 1.28796838 26.70703125 1.21875 C27.39150833 1.19687622 28.07598541 1.17500244 28.78120422 1.15246582 C36.8864724 0.89908657 36.8864724 0.89908657 38.6875 2.5 C39.120625 2.995 39.55375 3.49 40 4 C36.27498482 4 32.55519407 3.88674556 28.83203125 3.78125 C27.63981209 3.74795593 27.63981209 3.74795593 26.42350769 3.71398926 C23.886494 3.64305043 21.34949702 3.57153232 18.8125 3.5 C17.09179794 3.45178475 15.37109483 3.40360721 13.65039062 3.35546875 C9.43358136 3.23741666 5.21678699 3.11884506 1 3 C0.67 2.01 0.34 1.02 0 0 Z " fill="#FD7A61" transform="translate(123,118)"/>
<path d="M0 0 C5.61 0 11.22 0 17 0 C16.67 0.99 16.34 1.98 16 3 C10.72 3 5.44 3 0 3 C0 2.01 0 1.02 0 0 Z " fill="#FE8272" transform="translate(353,179)"/>
<path d="M0 0 C11.22 0 22.44 0 34 0 C34 0.33 34 0.66 34 1 C29.38 1 24.76 1 20 1 C20 1.66 20 2.32 20 3 C18.35 3 16.7 3 15 3 C15 2.34 15 1.68 15 1 C14.01 1 13.02 1 12 1 C12 1.66 12 2.32 12 3 C11.34 3 10.68 3 10 3 C10 2.34 10 1.68 10 1 C6.7 1 3.4 1 0 1 C0 0.67 0 0.34 0 0 Z " fill="#FFAA80" transform="translate(183,287)"/>
<path d="M0 0 C2.28030304 1.71022728 3.7979461 3.05190092 4.40625 5.90625 C4.57732955 9.72702668 4.44990102 11.43762372 2 14.5 C1.34 14.995 0.68 15.49 0 16 C-0.99 15.67 -1.98 15.34 -3 15 C-2.505 14.46375 -2.01 13.9275 -1.5 13.375 C0.41083301 10.34951441 0.29391871 8.52702454 0 5 C-0.32483418 3.66457061 -0.6550855 2.33038449 -1 1 C-0.67 0.67 -0.34 0.34 0 0 Z " fill="#F87747" transform="translate(206,235)"/>
<path d="M0 0 C-0.2165625 0.7734375 -0.2165625 0.7734375 -0.4375 1.5625 C-2.10841613 7.85368795 -2.10841613 7.85368795 -0.5625 13.9375 C-0.046875 14.618125 0.46875 15.29875 1 16 C0.01 16.33 -0.98 16.66 -2 17 C-2 16.34 -2 15.68 -2 15 C-2.99 14.67 -3.98 14.34 -5 14 C-6.55024464 10.89951072 -6.28992015 8.42105782 -6 5 C-2.80851064 0 -2.80851064 0 0 0 Z M-5 6 C-5 7.98 -5 9.96 -5 12 C-4.67 12 -4.34 12 -4 12 C-4 10.02 -4 8.04 -4 6 C-4.33 6 -4.66 6 -5 6 Z " fill="#FD8356" transform="translate(113,162)"/>
<path d="M0 0 C0.66 0 1.32 0 2 0 C1.36811627 3.42465377 0.03508836 5.71213394 -1.9375 8.5625 C-2.46214844 9.32691406 -2.98679688 10.09132813 -3.52734375 10.87890625 C-4.25630859 11.92884766 -4.25630859 11.92884766 -5 13 C-5.99 14.485 -5.99 14.485 -7 16 C-7.66 16 -8.32 16 -9 16 C-8.52971495 11.06562452 -7.21503461 8.42172342 -4.0625 4.625 C-3.35222656 3.75101562 -2.64195312 2.87703125 -1.91015625 1.9765625 C-1.27980469 1.32429688 -0.64945313 0.67203125 0 0 Z " fill="#FB9D6B" transform="translate(166,275)"/>
<path d="M0 0 C2.64 0 5.28 0 8 0 C8 0.66 8 1.32 8 2 C9.65 2.33 11.3 2.66 13 3 C10 4 10 4 7.75 3.4375 C2.81896913 2.65301782 -1.72432248 4.60562059 -6 7 C-5.34 5.35 -4.68 3.7 -4 2 C-2.68 2 -1.36 2 0 2 C0 1.34 0 0.68 0 0 Z " fill="#FE9276" transform="translate(193,335)"/>
<path d="M0 0 C0.66 0 1.32 0 2 0 C2.66 4.95 3.32 9.9 4 15 C3.01 15.33 2.02 15.66 1 16 C0.14701624 12.32612505 -0.10789471 8.9552607 -0.0625 5.1875 C-0.05347656 4.21167969 -0.04445312 3.23585938 -0.03515625 2.23046875 C-0.02355469 1.49441406 -0.01195312 0.75835937 0 0 Z " fill="#FD8260" transform="translate(166,345)"/>
<path d="M0 0 C0.99 0.66 1.98 1.32 3 2 C2.67 4.97 2.34 7.94 2 11 C1.34 11 0.68 11 0 11 C0.33 12.32 0.66 13.64 1 15 C0.01 15 -0.98 15 -2 15 C-2.33 15.99 -2.66 16.98 -3 18 C-2.67 15.36 -2.34 12.72 -2 10 C-1.01 9.67 -0.02 9.34 1 9 C0.67 8.34 0.34 7.68 0 7 C-0.04022391 4.6670134 -0.04320247 2.33293334 0 0 Z " fill="#FC7D5E" transform="translate(380,213)"/>
<path d="M0 0 C0.99 0 1.98 0 3 0 C2.3481031 3.52024323 1.17691784 6.14748697 -1 9 C-4.1875 10.3125 -4.1875 10.3125 -7 11 C-5.63016497 7.83884224 -5.0109362 7.0072908 -2 5 C-0.79549696 2.44816596 -0.79549696 2.44816596 0 0 Z " fill="#FD855E" transform="translate(358,353)"/>
<path d="M0 0 C3.96 0 7.92 0 12 0 C11.67 1.65 11.34 3.3 11 5 C8.9375 6.3125 8.9375 6.3125 7 7 C7.66 5.68 8.32 4.36 9 3 C6.03 2.67 3.06 2.34 0 2 C0 1.34 0 0.68 0 0 Z " fill="#F8795D" transform="translate(314,324)"/>
<path d="M0 0 C0.99 0 1.98 0 3 0 C2.95875 0.721875 2.9175 1.44375 2.875 2.1875 C2.84491096 5.0365789 2.84491096 5.0365789 4.0625 7.625 C5 10 5 10 4 13 C0.87506296 9.87506296 0.04088867 7.08354985 -0.125 2.6875 C-0.08375 1.800625 -0.0425 0.91375 0 0 Z " fill="#FE9264" transform="translate(331,347)"/>
<path d="M0 0 C0.5775 0.639375 1.155 1.27875 1.75 1.9375 C3.98062401 3.98223868 5.07436391 4.58205199 8 5 C8 5.66 8 6.32 8 7 C8.99 7.33 9.98 7.66 11 8 C7.22718603 8.35095944 5.40824943 8.24849965 2.125 6.25 C0 4 0 4 0 0 Z " fill="#FC7351" transform="translate(336,357)"/>
<path d="M0 0 C1.32 0.33 2.64 0.66 4 1 C4.66 3.97 5.32 6.94 6 10 C5.01 10 4.02 10 3 10 C2.87625 9.236875 2.7525 8.47375 2.625 7.6875 C2.11897208 4.79732864 2.11897208 4.79732864 0 2 C0 1.34 0 0.68 0 0 Z " fill="#FD8166" transform="translate(314,354)"/>
<path d="M0 0 C3 1 3 1 3.94921875 2.77734375 C4.19285156 3.49019531 4.43648438 4.20304687 4.6875 4.9375 C4.93886719 5.64777344 5.19023437 6.35804688 5.44921875 7.08984375 C6 9 6 9 6 11 C5.01 10.67 4.02 10.34 3 10 C1.25327015 6.5065403 0 3.93154432 0 0 Z " fill="#FC8658" transform="translate(372,332)"/>
<path d="M0 0 C0.66 0 1.32 0 2 0 C2.05422947 1.4370809 2.09289723 2.87475462 2.125 4.3125 C2.14820313 5.11300781 2.17140625 5.91351563 2.1953125 6.73828125 C2 9 2 9 0 12 C-0.66 12 -1.32 12 -2 12 C-1.34 8.04 -0.68 4.08 0 0 Z " fill="#FB7E59" transform="translate(373,244)"/>
<path d="M0 0 C0.66 0 1.32 0 2 0 C2.66 2.97 3.32 5.94 4 9 C3.01 9.33 2.02 9.66 1 10 C-1.29404844 6.55892734 -1.26293056 5.03160191 -1 1 C-0.67 0.67 -0.34 0.34 0 0 Z " fill="#FAA12D" transform="translate(117,124)"/>
<path d="M0 0 C3.71824156 1.23941385 4.67378745 2.9233963 7 6 C7.66 6.66 8.32 7.32 9 8 C7.25 8.75 7.25 8.75 5 9 C2.23733334 6.94773334 1.1594602 5.58468741 0.25 2.25 C0.1675 1.5075 0.085 0.765 0 0 Z " fill="#FD7D5A" transform="translate(184,354)"/>
<path d="M0 0 C3.3 0 6.6 0 10 0 C10 0.99 10 1.98 10 3 C7.36 3 4.72 3 2 3 C2 2.34 2 1.68 2 1 C1.34 0.67 0.68 0.34 0 0 Z " fill="#FB7A66" transform="translate(340,379)"/>
<path d="M0 0 C0.99 0.33 1.98 0.66 3 1 C1.1875 4 1.1875 4 -1 7 C-1.99 7 -2.98 7 -4 7 C-2.92598892 4.08482708 -2.22189824 2.22189824 0 0 Z " fill="#FD7855" transform="translate(337,337)"/>
<path d="M0 0 C1.9453125 -0.29296875 1.9453125 -0.29296875 4.125 -0.1875 C5.40375 -0.125625 6.6825 -0.06375 8 0 C8 0.99 8 1.98 8 3 C4.7 3 1.4 3 -2 3 C-1.34 2.01 -0.68 1.02 0 0 Z " fill="#FE8A68" transform="translate(343,335)"/>
<path d="M0 0 C0.99 0.33 1.98 0.66 3 1 C-0.96 4.465 -0.96 4.465 -5 8 C-5.33 7.01 -5.66 6.02 -6 5 C-4.6875 3.5 -4.6875 3.5 -3 2 C-2.01 2 -1.02 2 0 2 C0 1.34 0 0.68 0 0 Z " fill="#FD8950" transform="translate(220,370)"/>
<path d="M0 0 C0.66 0 1.32 0 2 0 C2 2.64 2 5.28 2 8 C1.01 8 0.02 8 -1 8 C-1.04241723 5.66705225 -1.04092937 3.33297433 -1 1 C-0.67 0.67 -0.34 0.34 0 0 Z " fill="#FD7F4F" transform="translate(377,345)"/>
<path d="M0 0 C2.375 0.6875 2.375 0.6875 5 2 C6.3125 4.625 6.3125 4.625 7 7 C4 7 4 7 1.8125 5.1875 C0 3 0 3 0 0 Z " fill="#FE7A60" transform="translate(353,337)"/>
<path d="M0 0 C0.99 0 1.98 0 3 0 C2.50168276 3.68754757 1.89932357 5.60490662 -1 8 C-1.66 7.67 -2.32 7.34 -3 7 C-3 6.34 -3 5.68 -3 5 C-2.34 4.67 -1.68 4.34 -1 4 C-0.34786708 1.97536745 -0.34786708 1.97536745 0 0 Z " fill="#FD7456" transform="translate(351,262)"/>
<path d="M0 0 C0.66 0.33 1.32 0.66 2 1 C1.88590407 2.45922693 1.75834456 3.91740598 1.625 5.375 C1.55539062 6.18710938 1.48578125 6.99921875 1.4140625 7.8359375 C1 10 1 10 -1 12 C-2.35714063 8.33572029 -1.52286834 6.49363912 0 3 C0 2.01 0 1.02 0 0 Z " fill="#FC805D" transform="translate(366,198)"/>
<path d="M0 0 C0.6875 3.3125 0.6875 3.3125 1 7 C0.01 7.99 -0.98 8.98 -2 10 C-2.33 7.03 -2.66 4.06 -3 1 C-1 0 -1 0 0 0 Z " fill="#FB735A" transform="translate(171,151)"/>
<path d="M0 0 C3.67420866 0.30618405 4.78135513 0.75771784 7.3125 3.5625 C8.1478125 4.7690625 8.1478125 4.7690625 9 6 C2.42696629 4.1011236 2.42696629 4.1011236 0 1 C0 0.67 0 0.34 0 0 Z " fill="#FB7E50" transform="translate(322,370)"/>
<path d="M0 0 C0.33 0.66 0.66 1.32 1 2 C1.66 2 2.32 2 3 2 C2.67 4.64 2.34 7.28 2 10 C0.68 10 -0.64 10 -2 10 C-1.125 5.25 -1.125 5.25 0 3 C0 2.01 0 1.02 0 0 Z " fill="#FD7C5E" transform="translate(360,222)"/>
<path d="M0 0 C3.36720387 1.39332574 4.9859524 2.9789286 7 6 C2.25 5.25 2.25 5.25 0 3 C0 2.01 0 1.02 0 0 Z " fill="#FE8F5E" transform="translate(175,370)"/>
<path d="M0 0 C0.33 0.66 0.66 1.32 1 2 C-0.4375 4.625 -0.4375 4.625 -2 7 C-3.32 6.67 -4.64 6.34 -6 6 C-2.25 1.125 -2.25 1.125 0 0 Z " fill="#FC795E" transform="translate(226,363)"/>
<path d="M0 0 C3 1 3 1 4.6875 4.0625 C5.120625 5.031875 5.55375 6.00125 6 7 C5.01 7 4.02 7 3 7 C0 2.77777778 0 2.77777778 0 0 Z " fill="#FD944F" transform="translate(160,310)"/>
<path d="M0 0 C0.99 0 1.98 0 3 0 C3.66 1.98 4.32 3.96 5 6 C4.34 6.66 3.68 7.32 3 8 C0 1.125 0 1.125 0 0 Z " fill="#FC795C" transform="translate(156,304)"/>
<path d="M0 0 C0.99 0.33 1.98 0.66 3 1 C2.67 2.65 2.34 4.3 2 6 C1.01 6 0.02 6 -1 6 C-0.67 4.02 -0.34 2.04 0 0 Z " fill="#FE7A6D" transform="translate(354,249)"/>
<path d="M0 0 C0.99 0 1.98 0 3 0 C2.88601335 1.62580966 2.75844341 3.25067157 2.625 4.875 C2.52058594 6.23238281 2.52058594 6.23238281 2.4140625 7.6171875 C2 10 2 10 0 12 C0 8.04 0 4.08 0 0 Z " fill="#FC5845" transform="translate(384,197)"/>
<path d="M0 0 C1.485 0.99 1.485 0.99 3 2 C2.67 3.98 2.34 5.96 2 8 C1.01 8 0.02 8 -1 8 C-0.67 5.36 -0.34 2.72 0 0 Z M1 3 C2 6 2 6 2 6 Z " fill="#FB7546" transform="translate(386,188)"/>
<path d="M0 0 C0.99 0.33 1.98 0.66 3 1 C3 2.98 3 4.96 3 7 C2.01 7 1.02 7 0 7 C0 4.69 0 2.38 0 0 Z " fill="#FE5941" transform="translate(389,167)"/>
<path d="M0 0 C0.66 0.33 1.32 0.66 2 1 C-2.625 5.875 -2.625 5.875 -6 7 C-5.34 5.35 -4.68 3.7 -4 2 C-2.68 2 -1.36 2 0 2 C0 1.34 0 0.68 0 0 Z " fill="#FE896A" transform="translate(193,335)"/>
<path d="M0 0 C-1.33332095 3.99996286 -3.4957827 4.83782337 -7 7 C-6.6875 4.625 -6.6875 4.625 -6 2 C-3 0 -3 0 0 0 Z " fill="#FD7F62" transform="translate(364,279)"/>
<path d="M0 0 C2.97 0.495 2.97 0.495 6 1 C3.03312999 2.64826111 0.34373475 3.44271087 -3 4 C-2.34 3.67 -1.68 3.34 -1 3 C-0.67 2.01 -0.34 1.02 0 0 Z " fill="#FE825B" transform="translate(354,378)"/>
<path d="M0 0 C0.66 0 1.32 0 2 0 C1.67 2.64 1.34 5.28 1 8 C0.34 8 -0.32 8 -1 8 C-1.125 2.25 -1.125 2.25 0 0 Z " fill="#FC755E" transform="translate(376,354)"/>
<path d="M0 0 C5.75 0.875 5.75 0.875 8 2 C8 2.99 8 3.98 8 5 C2.25 3.375 2.25 3.375 0 0 Z " fill="#FD8B68" transform="translate(169,321)"/>
<path d="M0 0 C0.66 0 1.32 0 2 0 C0.375 5.75 0.375 5.75 -3 8 C-3 6.68 -3 5.36 -3 4 C-2.34 3.67 -1.68 3.34 -1 3 C-0.67 2.01 -0.34 1.02 0 0 Z " fill="#FE9150" transform="translate(367,271)"/>
<path d="M0 0 C0.66 0 1.32 0 2 0 C1.67 2.31 1.34 4.62 1 7 C0.34 7 -0.32 7 -1 7 C-1.04254356 5.00045254 -1.04080783 2.99958364 -1 1 C-0.67 0.67 -0.34 0.34 0 0 Z " fill="#FA9E32" transform="translate(148,203)"/>
<path d="M0 0 C0.66 0.33 1.32 0.66 2 1 C1.67 2.65 1.34 4.3 1 6 C0.01 6.33 -0.98 6.66 -2 7 C-1.125 1.125 -1.125 1.125 0 0 Z " fill="#FD886A" transform="translate(159,284)"/>
<path d="M0 0 C0.99 0 1.98 0 3 0 C3 1.98 3 3.96 3 6 C2.01 6 1.02 6 0 6 C0 4.02 0 2.04 0 0 Z " fill="#FB6C5C" transform="translate(370,257)"/>
<path d="M0 0 C0.33 0.66 0.66 1.32 1 2 C0.0625 4.625 0.0625 4.625 -1 7 C-1.66 7 -2.32 7 -3 7 C-3.1875 4.625 -3.1875 4.625 -3 2 C-2.01 1.34 -1.02 0.68 0 0 Z " fill="#FC745C" transform="translate(364,215)"/>
<path d="M0 0 C0.33 1.32 0.66 2.64 1 4 C-0.98 4.99 -0.98 4.99 -3 6 C-3.66 5.34 -4.32 4.68 -5 4 C-3.35 2.68 -1.7 1.36 0 0 Z " fill="#FD865E" transform="translate(154,197)"/>
<path d="M0 0 C1 4 1 4 1 4 Z " fill="#FF2400" transform="translate(155,297)"/>
<path d="" fill="#FF5555" transform="translate(0,0)"/>
<path d="" fill="#FF6161" transform="translate(0,0)"/>
<path d="M0 0 C2 1 2 1 2 1 Z " fill="#FF7F40" transform="translate(348,288)"/>
<path d="" fill="#FF5555" transform="translate(0,0)"/>
<path d="" fill="#FF7051" transform="translate(0,0)"/>
<path d="" fill="#FF7F7F" transform="translate(0,0)"/>
<path d="" fill="#FFAA55" transform="translate(0,0)"/>
<path d="" fill="#FF8080" transform="translate(0,0)"/>
<path d="" fill="#FF8080" transform="translate(0,0)"/>
</svg>
