<?xml version="1.0" encoding="UTF-8"?>
<svg version="1.1" xmlns="http://www.w3.org/2000/svg" width="500" height="500">
<path d="M0 0 C1.81542684 0.95277721 3.6280113 1.91099292 5.4375 2.875 C7.09995205 3.55210813 8.76642359 4.2194652 10.4375 4.875 C11.8832511 5.56633648 13.32151747 6.27365295 14.75 7 C15.44738281 7.35320312 16.14476562 7.70640625 16.86328125 8.0703125 C17.38277344 8.33585938 17.90226562 8.60140625 18.4375 8.875 C18.4375 9.535 18.4375 10.195 18.4375 10.875 C19.4275 10.875 20.4175 10.875 21.4375 10.875 C21.7675 9.555 22.0975 8.235 22.4375 6.875 C23.0975 6.875 23.7575 6.875 24.4375 6.875 C24.7675 5.885 25.0975 4.895 25.4375 3.875 C31.5438489 1.61010712 39.24427784 2.56896025 45.69995117 2.52490234 C47.48165932 2.50831621 49.26330021 2.48099111 51.04467773 2.44287109 C53.62258155 2.38805757 56.19893551 2.36622762 58.77734375 2.3515625 C59.9666172 2.31755844 59.9666172 2.31755844 61.17991638 2.28286743 C65.42509439 2.29905326 66.99414464 2.53311419 70.47875977 5.22021484 C72.4375 7.875 72.4375 7.875 72.4375 10.875 C73.0975 10.875 73.7575 10.875 74.4375 10.875 C74.4375 11.865 74.4375 12.855 74.4375 13.875 C77.4075 13.875 80.3775 13.875 83.4375 13.875 C83.4375 14.535 83.4375 15.195 83.4375 15.875 C84.0975 15.875 84.7575 15.875 85.4375 15.875 C85.4375 16.535 85.4375 17.195 85.4375 17.875 C87.0875 18.205 88.7375 18.535 90.4375 18.875 C90.4375 19.535 90.4375 20.195 90.4375 20.875 C91.4275 20.545 92.4175 20.215 93.4375 19.875 C96.125 20.8125 96.125 20.8125 98.4375 21.875 C98.4375 22.535 98.4375 23.195 98.4375 23.875 C100.4175 24.205 102.3975 24.535 104.4375 24.875 C104.4375 25.535 104.4375 26.195 104.4375 26.875 C105.7575 26.875 107.0775 26.875 108.4375 26.875 C108.4375 27.535 108.4375 28.195 108.4375 28.875 C109.18 29.16375 109.9225 29.4525 110.6875 29.75 C113.00489797 30.69802644 115.21667115 31.72345911 117.4375 32.875 C117.4375 33.535 117.4375 34.195 117.4375 34.875 C119.0875 35.535 120.7375 36.195 122.4375 36.875 C122.4375 37.535 122.4375 38.195 122.4375 38.875 C123.4275 38.875 124.4175 38.875 125.4375 38.875 C125.4375 39.535 125.4375 40.195 125.4375 40.875 C126.0975 40.875 126.7575 40.875 127.4375 40.875 C127.4375 41.535 127.4375 42.195 127.4375 42.875 C128.4275 43.205 129.4175 43.535 130.4375 43.875 C130.4375 44.535 130.4375 45.195 130.4375 45.875 C131.241875 46.143125 132.04625 46.41125 132.875 46.6875 C133.720625 47.079375 134.56625 47.47125 135.4375 47.875 C135.7675 48.865 136.0975 49.855 136.4375 50.875 C137.0975 51.205 137.7575 51.535 138.4375 51.875 C138.4375 52.535 138.4375 53.195 138.4375 53.875 C139.4275 54.205 140.4175 54.535 141.4375 54.875 C143.125 56.25 143.125 56.25 144.4375 57.875 C144.4375 58.865 144.4375 59.855 144.4375 60.875 C145.0975 60.875 145.7575 60.875 146.4375 60.875 C146.7675 62.195 147.0975 63.515 147.4375 64.875 C148.0975 64.875 148.7575 64.875 149.4375 64.875 C151.47919485 67.78048882 152.4375 69.27642046 152.4375 72.875 C153.0975 72.875 153.7575 72.875 154.4375 72.875 C154.4375 74.195 154.4375 75.515 154.4375 76.875 C155.0975 77.205 155.7575 77.535 156.4375 77.875 C156.77083333 79.54166667 157.10416667 81.20833333 157.4375 82.875 C158.0975 83.205 158.7575 83.535 159.4375 83.875 C159.77083333 86.20833333 160.10416667 88.54166667 160.4375 90.875 C161.0975 91.205 161.7575 91.535 162.4375 91.875 C165.7825689 100.12616995 167.63320165 109.15368897 168.2265625 118.01171875 C168.24302147 119.8882138 168.24302147 119.8882138 169.4375 120.875 C169.69319615 125.43154844 169.6227378 129.99963887 169.625 134.5625 C169.63724609 135.84318359 169.64949219 137.12386719 169.66210938 138.44335938 C169.66404297 139.68279297 169.66597656 140.92222656 169.66796875 142.19921875 C169.67207764 143.33447998 169.67618652 144.46974121 169.68041992 145.6394043 C169.42628395 149.0243933 168.59429205 151.69793433 167.4375 154.875 C167.293125 155.926875 167.14875 156.97875 167 158.0625 C166.25224733 163.13060144 164.85138085 167.95754018 163.4375 172.875 C162.7775 172.875 162.1175 172.875 161.4375 172.875 C161.7675 173.865 162.0975 174.855 162.4375 175.875 C161.5 178.5625 161.5 178.5625 160.4375 180.875 C159.7775 180.875 159.1175 180.875 158.4375 180.875 C158.293125 181.6175 158.14875 182.36 158 183.125 C157.53562508 185.39527739 157.01886431 187.63259479 156.4375 189.875 C155.7775 189.875 155.1175 189.875 154.4375 189.875 C154.26927734 190.71804688 154.26927734 190.71804688 154.09765625 191.578125 C153.34692661 194.19013108 152.22582624 196.26971322 150.875 198.625 C150.41996094 199.42421875 149.96492187 200.2234375 149.49609375 201.046875 C149.14675781 201.65015625 148.79742187 202.2534375 148.4375 202.875 C147.7775 202.875 147.1175 202.875 146.4375 202.875 C146.1075 204.195 145.7775 205.515 145.4375 206.875 C144.7775 206.875 144.1175 206.875 143.4375 206.875 C143.128125 207.49375 142.81875 208.1125 142.5 208.75 C141.8125 210.125 141.125 211.5 140.4375 212.875 C139.7775 212.875 139.1175 212.875 138.4375 212.875 C138.169375 213.638125 137.90125 214.40125 137.625 215.1875 C136.4762516 217.78729902 135.4689124 218.97715992 133.4375 220.875 C139.95940909 221.66452918 146.43834082 222.14383807 153 222.4375 C153.91330078 222.48068359 154.82660156 222.52386719 155.76757812 222.56835938 C157.99077991 222.67311757 160.21406707 222.77529017 162.4375 222.875 C162.4375 223.535 162.4375 224.195 162.4375 224.875 C163.0975 225.205 163.7575 225.535 164.4375 225.875 C165.3125 227.6875 165.3125 227.6875 165.4375 229.875 C163.58694202 232.10843204 162.03366917 233.57691542 159.4375 234.875 C156.57435018 234.97533381 153.7353782 235.01394545 150.87185669 235.00871277 C149.97458858 235.01097833 149.07732048 235.01324388 148.15286243 235.01557809 C145.12809985 235.02193874 142.10338184 235.02108741 139.07861328 235.02026367 C136.91734763 235.02325388 134.75608252 235.02665609 132.59481812 235.03044128 C126.71055526 235.0392997 120.82630694 235.04162017 114.94203806 235.04225707 C110.0362752 235.04320471 105.13051576 235.04688135 100.22475421 235.05042917 C88.65390341 235.05858078 77.08306038 235.06101276 65.51220703 235.06030273 C53.56185876 235.0597018 41.61155561 235.07025508 29.66121876 235.0860464 C19.41406482 235.0991064 9.16692565 235.10448728 -1.08023655 235.10384732 C-7.2060429 235.10359188 -13.33180918 235.10646879 -19.45760727 235.11702538 C-25.2178763 235.12668044 -30.97806673 235.12680339 -36.73833847 235.11950874 C-38.85556146 235.11845965 -40.97278928 235.12084489 -43.09000397 235.1268692 C-45.97439262 235.13454641 -48.85850698 235.12997271 -51.7428894 235.12223816 C-52.58588242 235.12738172 -53.42887544 235.13252529 -54.29741371 235.13782471 C-61.29396945 235.09620441 -61.29396945 235.09620441 -64.5625 232.875 C-64.5625 232.215 -64.5625 231.555 -64.5625 230.875 C-65.2225 230.875 -65.8825 230.875 -66.5625 230.875 C-66.2325 228.895 -65.9025 226.915 -65.5625 224.875 C-55.49548194 222.3739752 -45.89364693 221.26409514 -35.5625 220.875 C-37.1382946 218.14332169 -38.50922029 215.92827971 -40.75 213.6875 C-41.348125 213.089375 -41.94625 212.49125 -42.5625 211.875 C-42.5625 211.215 -42.5625 210.555 -42.5625 209.875 C-43.2225 209.875 -43.8825 209.875 -44.5625 209.875 C-45.94387335 208.20034144 -47.24396716 206.45810868 -48.5 204.6875 C-49.18964844 203.72457031 -49.87929687 202.76164063 -50.58984375 201.76953125 C-55.5625 194.4730198 -55.5625 194.4730198 -55.5625 190.875 C-56.2225 190.545 -56.8825 190.215 -57.5625 189.875 C-57.89583333 188.20833333 -58.22916667 186.54166667 -58.5625 184.875 C-59.2225 184.545 -59.8825 184.215 -60.5625 183.875 C-63.04284356 179.74109407 -64.09846519 175.83590407 -65.0234375 171.1796875 C-65.56118391 168.88062676 -66.30443665 166.81202607 -67.1875 164.625 C-68.45316916 161.17317501 -68.65340401 159.42025642 -68.5625 155.875 C-68.88573242 154.83359863 -69.20896484 153.79219727 -69.54199219 152.71923828 C-70.60748753 148.70553263 -70.85220392 145.04484683 -70.828125 140.9296875 C-70.83003845 140.19678497 -70.8319519 139.46388245 -70.83392334 138.70877075 C-70.83527548 137.17091526 -70.83164741 135.63304796 -70.82324219 134.09521484 C-70.81249731 131.74941339 -70.82318604 129.40437222 -70.8359375 127.05859375 C-70.83461634 125.55728999 -70.83205483 124.0559867 -70.828125 122.5546875 C-70.83217346 121.85874481 -70.83622192 121.16280212 -70.84039307 120.44577026 C-70.80208104 116.44865035 -70.21139605 113.49925138 -68.5625 109.875 C-68.18849214 107.54784 -67.85485267 105.21382138 -67.5625 102.875 C-67.24283861 101.20565717 -66.91518934 99.5376783 -66.5625 97.875 C-65.9025 97.875 -65.2425 97.875 -64.5625 97.875 C-64.8925 96.885 -65.2225 95.895 -65.5625 94.875 C-65.0675 93.885 -65.0675 93.885 -64.5625 92.875 C-63.9025 92.875 -63.2425 92.875 -62.5625 92.875 C-62.8925 91.885 -63.2225 90.895 -63.5625 89.875 C-62.9025 89.875 -62.2425 89.875 -61.5625 89.875 C-61.8925 88.885 -62.2225 87.895 -62.5625 86.875 C-61.9025 86.875 -61.2425 86.875 -60.5625 86.875 C-60.43875 85.8025 -60.315 84.73 -60.1875 83.625 C-59.66606064 80.49636385 -59.16161746 78.54019576 -57.5625 75.875 C-56.9025 75.875 -56.2425 75.875 -55.5625 75.875 C-55.5625 74.885 -55.5625 73.895 -55.5625 72.875 C-54.9025 72.875 -54.2425 72.875 -53.5625 72.875 C-53.294375 71.781875 -53.02625 70.68875 -52.75 69.5625 C-51.62683567 66.07477919 -51.15660168 65.14483897 -48.5625 62.875 C-47.38675289 60.77510348 -47.38675289 60.77510348 -46.5625 58.875 C-45.9025 58.875 -45.2425 58.875 -44.5625 58.875 C-44.5625 58.215 -44.5625 57.555 -44.5625 56.875 C-43.9025 56.875 -43.2425 56.875 -42.5625 56.875 C-42.34335938 56.16730469 -42.12421875 55.45960938 -41.8984375 54.73046875 C-40.25593291 51.21973525 -37.93346994 48.84314198 -35.1875 46.1875 C-34.70539063 45.70216797 -34.22328125 45.21683594 -33.7265625 44.71679688 C-31.16634691 42.19484537 -28.83892844 40.33601224 -25.5625 38.875 C-24.923125 38.235625 -24.28375 37.59625 -23.625 36.9375 C-21.42918455 34.74168455 -19.30424342 33.31802285 -16.5625 31.875 C-15.9025 31.875 -15.2425 31.875 -14.5625 31.875 C-13.59019715 28.95809144 -13.46938742 27.22252057 -13.53515625 24.19921875 C-13.54740234 23.28849609 -13.55964844 22.37777344 -13.57226562 21.43945312 C-13.60720854 19.53312316 -13.64622063 17.62686311 -13.68945312 15.72070312 C-13.76721155 9.23016187 -13.68157596 4.21141709 -9.125 -0.8125 C-4.82165102 -2.39794436 -4.04082816 -1.84614656 0 0 Z " fill="#F6DFC1" transform="translate(200.5625,137.125)"/>
<path d="M0 0 C1.485 0.495 1.485 0.495 3 1 C3 1.66 3 2.32 3 3 C3.99 2.67 4.98 2.34 6 2 C8.6875 2.9375 8.6875 2.9375 11 4 C11 4.66 11 5.32 11 6 C12.98 6.33 14.96 6.66 17 7 C17 7.66 17 8.32 17 9 C18.32 9 19.64 9 21 9 C21 9.66 21 10.32 21 11 C22.11375 11.433125 22.11375 11.433125 23.25 11.875 C25.56739797 12.82302644 27.77917115 13.84845911 30 15 C30 15.66 30 16.32 30 17 C32.475 17.99 32.475 17.99 35 19 C35 19.66 35 20.32 35 21 C35.99 21 36.98 21 38 21 C38 21.66 38 22.32 38 23 C38.66 23 39.32 23 40 23 C40 23.66 40 24.32 40 25 C41.485 25.495 41.485 25.495 43 26 C43 26.66 43 27.32 43 28 C43.804375 28.268125 44.60875 28.53625 45.4375 28.8125 C46.283125 29.204375 47.12875 29.59625 48 30 C48.495 31.485 48.495 31.485 49 33 C49.66 33.33 50.32 33.66 51 34 C51 34.66 51 35.32 51 36 C52.485 36.495 52.485 36.495 54 37 C55.6875 38.375 55.6875 38.375 57 40 C57 40.99 57 41.98 57 43 C57.66 43 58.32 43 59 43 C59.495 44.98 59.495 44.98 60 47 C60.66 47 61.32 47 62 47 C64.04169485 49.90548882 65 51.40142046 65 55 C65.66 55 66.32 55 67 55 C67 56.32 67 57.64 67 59 C67.66 59.33 68.32 59.66 69 60 C69.33333333 61.66666667 69.66666667 63.33333333 70 65 C70.66 65.33 71.32 65.66 72 66 C72.33333333 68.33333333 72.66666667 70.66666667 73 73 C73.66 73.33 74.32 73.66 75 74 C78.3450689 82.25116995 80.19570165 91.27868897 80.7890625 100.13671875 C80.80552147 102.0132138 80.80552147 102.0132138 82 103 C82.25569615 107.55654844 82.1852378 112.12463887 82.1875 116.6875 C82.19974609 117.96818359 82.21199219 119.24886719 82.22460938 120.56835938 C82.22654297 121.80779297 82.22847656 123.04722656 82.23046875 124.32421875 C82.23457764 125.45947998 82.23868652 126.59474121 82.24291992 127.7644043 C81.98878395 131.1493933 81.15679205 133.82293433 80 137 C79.855625 138.051875 79.71125 139.10375 79.5625 140.1875 C78.81474733 145.25560144 77.41388085 150.08254018 76 155 C75.34 155 74.68 155 74 155 C74.33 155.99 74.66 156.98 75 158 C74.0625 160.6875 74.0625 160.6875 73 163 C72.34 163 71.68 163 71 163 C70.855625 163.7425 70.71125 164.485 70.5625 165.25 C70.09812508 167.52027739 69.58136431 169.75759479 69 172 C68.34 172 67.68 172 67 172 C66.83177734 172.84304688 66.83177734 172.84304688 66.66015625 173.703125 C65.90942661 176.31513108 64.78832624 178.39471322 63.4375 180.75 C62.98246094 181.54921875 62.52742188 182.3484375 62.05859375 183.171875 C61.70925781 183.77515625 61.35992187 184.3784375 61 185 C60.34 185 59.68 185 59 185 C58.67 186.32 58.34 187.64 58 189 C57.34 189 56.68 189 56 189 C55.690625 189.61875 55.38125 190.2375 55.0625 190.875 C54.375 192.25 53.6875 193.625 53 195 C52.34 195 51.68 195 51 195 C50.731875 195.763125 50.46375 196.52625 50.1875 197.3125 C49.0387516 199.91229902 48.0314124 201.10215992 46 203 C53.65144206 203.9234499 61.31102069 204.48594306 69 205 C69 205.33 69 205.66 69 206 C56.13 206 43.26 206 30 206 C31.98 203.36 33.96 200.72 36 198 C41.43631438 188.68241001 42.95943683 178.54930229 40.23046875 168.03515625 C39.30155634 165.57409348 38.25350285 163.31046343 37 161 C36.443125 159.96875 35.88625 158.9375 35.3125 157.875 C29.28317407 150.37908127 22.66617021 144.70194419 13 143 C6.33439068 142.5792384 -0.33053911 142.76483781 -7 143 C-7.17076363 137.22818925 -6.86649258 134.46133759 -3 130 C2.204057 126.54592186 6.71707999 125.2020686 12.8125 124.125 C20.61099214 122.55306927 28.14810045 120.71378867 33.4140625 114.26953125 C34.69564324 112.27713832 34.69564324 112.27713832 36 109 C36.4125 108.0925 36.825 107.185 37.25 106.25 C38.99277925 98.69795659 38.90938428 90.85310392 35 84 C31.18701506 79.38428139 27.94113368 77.30636809 22 76.6875 C18.51827057 77.05018015 16.75329101 77.85855143 14 80 C11.44152179 84.19554643 11.30580891 88.20922447 12 93 C14.30537107 96.92766923 17.00537007 98.89172309 21 101 C21 100.34 21 99.68 21 99 C19.8553125 98.62875 19.8553125 98.62875 18.6875 98.25 C15.6471669 96.83589158 14.73229144 95.82610974 13 93 C12.16208761 89.00530137 11.87675956 84.79638808 14.1015625 81.23828125 C16.76599705 78.75195061 18.99736327 78.00037007 22.5625 77.5 C27.44062086 78.20954485 29.82963658 79.76275867 33.1875 83.3125 C37.7681695 90.10452719 37.94898581 97.55627233 36.5703125 105.46484375 C34.93676435 111.36376763 32.01409641 115.47633225 27 119 C21.18339694 121.93186962 15.10940428 123.21427771 8.75 124.4375 C1.64081913 125.86401327 -2.86389738 127.79584607 -7 134 C-7.01937668 135.58335183 -6.99401648 137.16753851 -6.9375 138.75 C-7.20935096 142.40666191 -7.54809194 143.59880859 -10.33203125 146.0703125 C-12.23430166 147.24681709 -14.17076879 148.3702243 -16.140625 149.4296875 C-19.05512751 151.03027495 -21.4336849 152.89739224 -24 155 C-24.10546143 154.23034912 -24.21092285 153.46069824 -24.31958008 152.66772461 C-24.81252653 149.09031886 -25.31249139 145.51392525 -25.8125 141.9375 C-26.0609668 140.12282227 -26.0609668 140.12282227 -26.31445312 138.27148438 C-26.48525391 137.05654297 -26.65605469 135.84160156 -26.83203125 134.58984375 C-26.98389893 133.49534912 -27.1357666 132.40085449 -27.29223633 131.27319336 C-27.6770495 128.71578828 -28.17094639 126.2199883 -28.72506714 123.69158936 C-30.63648412 114.90056758 -31.46725807 106.61771816 -31.46875 97.5859375 C-31.47636353 96.28725739 -31.48397705 94.98857727 -31.49182129 93.65054321 C-31.50509702 90.93637324 -31.50690688 88.22249364 -31.50097656 85.50830078 C-31.49501657 82.03917553 -31.5260039 78.57141918 -31.56609344 75.10256004 C-31.59814219 71.76364084 -31.59385434 68.42501004 -31.59375 65.0859375 C-31.61014526 63.84637299 -31.62654053 62.60680847 -31.64343262 61.3296814 C-31.57372116 52.69609862 -31.57372116 52.69609862 -28.4934082 48.95874023 C-27.25917114 47.98916382 -27.25917114 47.98916382 -26 47 C-25.32751451 44.80527415 -25.32751451 44.80527415 -25.51171875 42.57421875 C-25.52783203 41.77822266 -25.54394531 40.98222656 -25.56054688 40.16210938 C-25.60244141 39.34548828 -25.64433594 38.52886719 -25.6875 37.6875 C-25.71005859 36.85154297 -25.73261719 36.01558594 -25.75585938 35.15429688 C-25.8144939 33.10208851 -25.90416785 31.05080798 -26 29 C-25.37351562 28.91363281 -24.74703125 28.82726562 -24.1015625 28.73828125 C-21.63599253 28.31438988 -19.3561108 27.84578336 -17 27 C-15.36329803 24.66009292 -15.36329803 24.66009292 -15 22 C-14.67 21.01 -14.34 20.02 -14 19 C-13.30132812 18.87882812 -12.60265625 18.75765625 -11.8828125 18.6328125 C-10.97273438 18.46523437 -10.06265625 18.29765625 -9.125 18.125 C-7.76761719 17.88136719 -7.76761719 17.88136719 -6.3828125 17.6328125 C-3.83494012 17.16955297 -3.83494012 17.16955297 -2 15 C-1.72423013 12.6545346 -1.55028694 10.29642689 -1.4375 7.9375 C-1.09722222 1.09722222 -1.09722222 1.09722222 0 0 Z " fill="#F7E0C4" transform="translate(288,155)"/>
<path d="M0 0 C5.94 0 11.88 0 18 0 C18.00410889 1.67618408 18.00821777 3.35236816 18.01245117 5.0793457 C18.03218795 10.74318661 18.07501894 16.40657063 18.13209057 22.07015705 C18.16576428 25.48964269 18.19137396 28.90871017 18.19555664 32.32836914 C18.23826481 50.1376774 19.67934841 66.81907841 23.43769836 84.23478699 C24.63140285 90.10502988 25.33224248 96.04998149 26 102 C26.50789062 101.52949219 27.01578125 101.05898438 27.5390625 100.57421875 C33.4840727 95.19699042 33.4840727 95.19699042 37.4375 93.6875 C38.283125 93.130625 39.12875 92.57375 40 92 C40.4748108 89.49156557 40.56877812 87.0527166 40.6875 84.50390625 C41.19167725 80.46418604 43.02502421 78.658489 46 76 C52.15187638 72.1963217 58.43815379 70.84504072 65.46484375 69.578125 C73.30049022 68.02968379 78.33441365 64.60958066 83 58 C85.88351128 50.99718689 86.20719869 42.75954098 83.75 35.5625 C82.11956248 32.24339505 80.89017017 30.25794545 78 28 C73.29960108 26.43320036 69.59965829 26.25122378 65.0625 28.375 C62.33980689 31.84024578 62.29598578 34.26338613 62.5 38.5859375 C63.25313326 42.22215902 65.0770159 43.84255936 68 46 C68.66 46.33 69.32 46.66 70 47 C70 47.66 70 48.32 70 49 C66.06041652 47.87440472 63.48165388 46.10316177 60.94921875 42.84375 C59.13896418 39.32753536 59.35697453 35.82282177 60 32 C61.28610829 28.88626415 62.58883441 27.3737869 65.0625 25.125 C69.50911198 23.42204222 73.41737634 23.90349764 78 25 C82.96107581 27.80408632 85.90409627 32.47278668 87.58984375 37.8984375 C89.20158136 46.15667402 88.06390388 53.64985286 84 61 C78.78305267 68.48175599 70.77366672 71.61800803 62.04418945 73.33740234 C60.14984595 73.67206892 58.24875718 73.96785772 56.34765625 74.26171875 C52.98095522 75.00420007 50.86305768 76.14080512 48 78 C47.34 78 46.68 78 46 78 C44.42445965 80.88628401 43.53723627 83.53342384 42.875 86.75 C42.70742188 87.54921875 42.53984375 88.3484375 42.3671875 89.171875 C42.24601563 89.77515625 42.12484375 90.3784375 42 91 C42.99 90.67 43.98 90.34 45 90 C57.7803996 89.15990908 68.2088779 89.60655698 78.375 98.25 C82.39363891 102.14126525 85.51594385 105.99149654 88 111 C88.598125 112.175625 89.19625 113.35125 89.8125 114.5625 C93.05712315 124.10881898 91.64965834 134.1890124 87.6796875 143.21875 C86 146 86 146 80 153 C94.52 153 109.04 153 124 153 C124 153.66 124 154.32 124 155 C124.66 155.33 125.32 155.66 126 156 C126.875 157.8125 126.875 157.8125 127 160 C125.14944202 162.23343204 123.59616917 163.70191542 121 165 C118.13685018 165.10033381 115.2978782 165.13894545 112.43435669 165.13371277 C111.53708858 165.13597833 110.63982048 165.13824388 109.71536243 165.14057809 C106.69059985 165.14693874 103.66588184 165.14608741 100.64111328 165.14526367 C98.47984763 165.14825388 96.31858252 165.15165609 94.15731812 165.15544128 C88.27305526 165.1642997 82.38880694 165.16662017 76.50453806 165.16725707 C71.5987752 165.16820471 66.69301576 165.17188135 61.78725421 165.17542917 C50.21640341 165.18358078 38.64556038 165.18601276 27.07470703 165.18530273 C15.12435876 165.1847018 3.17405561 165.19525508 -8.77628124 165.2110464 C-19.02343518 165.2241064 -29.27057435 165.22948728 -39.51773655 165.22884732 C-45.6435429 165.22859188 -51.76930918 165.23146879 -57.89510727 165.24202538 C-63.6553763 165.25168044 -69.41556673 165.25180339 -75.17583847 165.24450874 C-77.29306146 165.24345965 -79.41028928 165.24584489 -81.52750397 165.2518692 C-84.41189262 165.25954641 -87.29600698 165.25497271 -90.1803894 165.24723816 C-91.02338242 165.25238172 -91.86637544 165.25752529 -92.73491371 165.26282471 C-99.73146945 165.22120441 -99.73146945 165.22120441 -103 163 C-103 162.34 -103 161.68 -103 161 C-103.66 161 -104.32 161 -105 161 C-104.67 159.02 -104.34 157.04 -104 155 C-100.43103644 153.81034548 -97.20056533 153.87510274 -93.48828125 153.90234375 C-92.84258179 153.90335083 -92.19688232 153.90435791 -91.53161621 153.90539551 C-89.12522601 153.91061789 -86.71886118 153.92457917 -84.3125 153.9375 C-78.929375 153.958125 -73.54625 153.97875 -68 154 C-66.68 140.47 -65.36 126.94 -64 113 C-65.32 113 -66.64 113 -68 113 C-68 108.38 -68 103.76 -68 99 C-65.69 99 -63.38 99 -61 99 C-67.10059842 87.70931584 -73.25593989 76.45443578 -79.625 65.3125 C-80.13321289 64.42280518 -80.64142578 63.53311035 -81.16503906 62.61645508 C-83.04061884 59.34821589 -84.90885764 56.13671354 -87 53 C-87 52.01 -87 51.02 -87 50 C-85.515 49.505 -85.515 49.505 -84 49 C-77.00711605 60.39778794 -70.28869169 71.92746804 -63.8125 83.625 C-63.47926727 84.22680084 -63.14603455 84.82860168 -62.80270386 85.44863892 C-57.31986711 95.36026578 -57.31986711 95.36026578 -56 98 C-53.47266765 98.65555119 -53.47266765 98.65555119 -51 99 C-51.91965128 94.76347828 -52.84117792 90.52736971 -53.7644043 86.29162598 C-54.08722955 84.8096974 -54.40966019 83.32768281 -54.73168945 81.84558105 C-56.83139738 72.18596581 -59.00553592 62.55912651 -61.46875 52.984375 C-61.97045539 50.16597121 -61.99485191 48.64421165 -61 46 C-60.34 46 -59.68 46 -59 46 C-56.05217835 55.85318313 -53.5535204 65.76150636 -51.28027344 75.79003906 C-50.74242819 78.15834108 -50.19573931 80.52449247 -49.6484375 82.890625 C-49.30155869 84.40873438 -48.95518516 85.92695933 -48.609375 87.4453125 C-48.44693298 88.14633087 -48.28449097 88.84734924 -48.11712646 89.5696106 C-47.38242606 92.83878118 -47 95.62325087 -47 99 C-42.11720769 100.0906829 -37.44790153 100.57196265 -33 98 C-28.18731805 92.31151447 -25.46383321 84.98851612 -22.47314453 78.23583984 C-20.11781656 73.06223744 -17.42855394 68.07407225 -14.75 63.0625 C-13.82654296 61.3042154 -12.9045119 59.5451806 -11.984375 57.78515625 C-11.32294539 56.52342244 -10.66149918 55.26169733 -10 54 C-8.35 54.33 -6.7 54.66 -5 55 C-6.50831014 58.98117789 -8.33442969 62.70588462 -10.30078125 66.48046875 C-10.77815987 67.39980949 -10.77815987 67.39980949 -11.2651825 68.33772278 C-12.27875588 70.28880159 -13.29545696 72.23822792 -14.3125 74.1875 C-15.6430364 76.7429135 -16.97223736 79.29901884 -18.30078125 81.85546875 C-18.62023712 82.46977753 -18.93969299 83.0840863 -19.26882935 83.7170105 C-21.89955414 88.7849232 -24.47075779 93.88077777 -27 99 C-25.02 99 -23.04 99 -21 99 C-20.01670789 103.05607995 -19.76399747 106.83062202 -20 111 C-20.66 111.66 -21.32 112.32 -22 113 C-22.99 113 -23.98 113 -25 113 C-24.87882812 114.13542236 -24.75765625 115.27084473 -24.6328125 116.44067383 C-24.18396354 120.65046731 -23.73717702 124.86047755 -23.29101562 129.07055664 C-23.09756891 130.8932077 -22.90356177 132.71579937 -22.70898438 134.53833008 C-22.42951711 137.15690981 -22.15206124 139.775696 -21.875 142.39453125 C-21.78750488 143.21025101 -21.70000977 144.02597076 -21.60986328 144.8664093 C-21.28770839 147.92596926 -21 150.9210961 -21 154 C-16.05 153.67 -11.1 153.34 -6 153 C-7.32 151.02 -8.64 149.04 -10 147 C-10.43676758 144.66699219 -10.43676758 144.66699219 -10.33203125 142.296875 C-10.2954541 141.34232422 -10.25887695 140.38777344 -10.22119141 139.40429688 C-10.14819824 138.28087891 -10.07520508 137.15746094 -10 136 C-9.96066345 135.33718018 -9.9213269 134.67436035 -9.88079834 133.99145508 C-9.54656353 128.40583781 -9.12712886 122.8281894 -8.6875 117.25 C-8.62030762 116.38616699 -8.55311523 115.52233398 -8.48388672 114.63232422 C-7.68211424 104.39882636 -6.82396994 94.18164086 -5.5 84 C-5.39389404 83.18047852 -5.28778809 82.36095703 -5.1784668 81.51660156 C-4.68579975 77.99642183 -4.14430259 74.56407457 -3.26245117 71.11694336 C-0.0227331 57.8127994 -0.43711736 44.23493333 -0.33044434 30.61987305 C-0.30026627 27.15986594 -0.25386798 23.70007642 -0.20898438 20.24023438 C-0.12377759 13.49360086 -0.05757902 6.74692544 0 0 Z " fill="#632B18" transform="translate(239,207)"/>
<path d="M0 0 C0.66 0 1.32 0 2 0 C4.94782165 9.85318313 7.4464796 19.76150636 9.71972656 29.79003906 C10.25757181 32.15834108 10.80426069 34.52449247 11.3515625 36.890625 C11.69844131 38.40873438 12.04481484 39.92695933 12.390625 41.4453125 C12.55306702 42.14633087 12.71550903 42.84734924 12.88287354 43.5696106 C13.61757394 46.83878118 14 49.62325087 14 53 C18.88279231 54.0906829 23.55209847 54.57196265 28 52 C32.81268195 46.31151447 35.53616679 38.98851612 38.52685547 32.23583984 C40.88218344 27.06223744 43.57144606 22.07407225 46.25 17.0625 C47.17345704 15.3042154 48.0954881 13.5451806 49.015625 11.78515625 C49.67705461 10.52342244 50.33850082 9.26169733 51 8 C52.65 8.33 54.3 8.66 56 9 C54.49168986 12.98117789 52.66557031 16.70588462 50.69921875 20.48046875 C50.22184013 21.39980949 50.22184013 21.39980949 49.7348175 22.33772278 C48.72124412 24.28880159 47.70454304 26.23822792 46.6875 28.1875 C45.3569636 30.7429135 44.02776264 33.29901884 42.69921875 35.85546875 C42.37976288 36.46977753 42.06030701 37.0840863 41.73117065 37.7170105 C39.10044586 42.7849232 36.52924221 47.88077777 34 53 C35.98 53 37.96 53 40 53 C40.98329211 57.05607995 41.23600253 60.83062202 41 65 C40.34 65.66 39.68 66.32 39 67 C38.01 67 37.02 67 36 67 C36.12117188 68.13542236 36.24234375 69.27084473 36.3671875 70.44067383 C36.81603646 74.65046731 37.26282298 78.86047755 37.70898438 83.07055664 C37.90243109 84.8932077 38.09643823 86.71579937 38.29101562 88.53833008 C38.57048289 91.15690981 38.84793876 93.775696 39.125 96.39453125 C39.21249512 97.21025101 39.29999023 98.02597076 39.39013672 98.8664093 C39.71229161 101.92596926 40 104.9210961 40 108 C44.95 107.67 49.9 107.34 55 107 C53.68 105.02 52.36 103.04 51 101 C50.57421875 98.39453125 50.57421875 98.39453125 50.6875 95.8125 C50.72423828 94.55373047 50.72423828 94.55373047 50.76171875 93.26953125 C51.10875242 88.50777421 51.56774739 83.75477867 52 79 C60.58 79 69.16 79 78 79 C78.53625 81.454375 79.0725 83.90875 79.625 86.4375 C81.06084036 92.57431899 82.89842046 97.35985593 86.828125 102.3984375 C88 104 88 104 88 106 C90.74005435 106.77142586 93.16818961 107.12409704 96.01165771 107.12025452 C96.7996727 107.12162918 97.58768768 107.12300385 98.39958191 107.12442017 C99.68243828 107.11902725 99.68243828 107.11902725 100.99121094 107.11352539 C101.89887711 107.11367142 102.80654327 107.11381744 103.74171448 107.1139679 C106.73929237 107.11327171 109.73680798 107.10549302 112.734375 107.09765625 C114.8137407 107.09579103 116.89310685 107.09436762 118.97247314 107.09336853 C124.44363622 107.08955157 129.91477272 107.07972826 135.38592529 107.06866455 C140.96951946 107.05843281 146.55311791 107.05386713 152.13671875 107.04882812 C163.0911575 107.03810528 174.04557654 107.02103868 185 107 C185 107.66 185 108.32 185 109 C185.66 109.33 186.32 109.66 187 110 C187.875 111.8125 187.875 111.8125 188 114 C186.14944202 116.23343204 184.59616917 117.70191542 182 119 C179.13685018 119.10033381 176.2978782 119.13894545 173.43435669 119.13371277 C172.53708858 119.13597833 171.63982048 119.13824388 170.71536243 119.14057809 C167.69059985 119.14693874 164.66588184 119.14608741 161.64111328 119.14526367 C159.47984763 119.14825388 157.31858252 119.15165609 155.15731812 119.15544128 C149.27305526 119.1642997 143.38880694 119.16662017 137.50453806 119.16725707 C132.5987752 119.16820471 127.69301576 119.17188135 122.78725421 119.17542917 C111.21640341 119.18358078 99.64556038 119.18601276 88.07470703 119.18530273 C76.12435876 119.1847018 64.17405561 119.19525508 52.22371876 119.2110464 C41.97656482 119.2241064 31.72942565 119.22948728 21.48226345 119.22884732 C15.3564571 119.22859188 9.23069082 119.23146879 3.10489273 119.24202538 C-2.6553763 119.25168044 -8.41556673 119.25180339 -14.17583847 119.24450874 C-16.29306146 119.24345965 -18.41028928 119.24584489 -20.52750397 119.2518692 C-23.41189262 119.25954641 -26.29600698 119.25497271 -29.1803894 119.24723816 C-30.02338242 119.25238172 -30.86637544 119.25752529 -31.73491371 119.26282471 C-38.73146945 119.22120441 -38.73146945 119.22120441 -42 117 C-42 116.34 -42 115.68 -42 115 C-42.66 115 -43.32 115 -44 115 C-43.67 113.02 -43.34 111.04 -43 109 C-39.43103644 107.81034548 -36.20056533 107.87510274 -32.48828125 107.90234375 C-31.84258179 107.90335083 -31.19688232 107.90435791 -30.53161621 107.90539551 C-28.12522601 107.91061789 -25.71886118 107.92457917 -23.3125 107.9375 C-17.929375 107.958125 -12.54625 107.97875 -7 108 C-5.68 94.47 -4.36 80.94 -3 67 C-4.32 67 -5.64 67 -7 67 C-7 62.38 -7 57.76 -7 53 C-4.69 53 -2.38 53 0 53 C-6.10059842 41.70931584 -12.25593989 30.45443578 -18.625 19.3125 C-19.13321289 18.42280518 -19.64142578 17.53311035 -20.16503906 16.61645508 C-22.04061884 13.34821589 -23.90885764 10.13671354 -26 7 C-26 6.01 -26 5.02 -26 4 C-25.01 3.67 -24.02 3.34 -23 3 C-16.00711605 14.39778794 -9.28869169 25.92746804 -2.8125 37.625 C-2.47926727 38.22680084 -2.14603455 38.82860168 -1.80270386 39.44863892 C3.68013289 49.36026578 3.68013289 49.36026578 5 52 C7.52733235 52.65555119 7.52733235 52.65555119 10 53 C9.08034872 48.76347828 8.15882208 44.52736971 7.2355957 40.29162598 C6.91277045 38.8096974 6.59033981 37.32768281 6.26831055 35.84558105 C4.16860262 26.18596581 1.99446408 16.55912651 -0.46875 6.984375 C-0.97045539 4.16597121 -0.99485191 2.64421165 0 0 Z " fill="#E6870E" transform="translate(178,253)"/>
<path d="M0 0 C1.81542684 0.95277721 3.6280113 1.91099292 5.4375 2.875 C7.09995205 3.55210813 8.76642359 4.2194652 10.4375 4.875 C11.8832511 5.56633648 13.32151747 6.27365295 14.75 7 C15.44738281 7.35320312 16.14476562 7.70640625 16.86328125 8.0703125 C17.64251953 8.46863281 17.64251953 8.46863281 18.4375 8.875 C18.4375 9.535 18.4375 10.195 18.4375 10.875 C19.4275 10.875 20.4175 10.875 21.4375 10.875 C21.7675 9.555 22.0975 8.235 22.4375 6.875 C23.0975 6.875 23.7575 6.875 24.4375 6.875 C24.7675 5.885 25.0975 4.895 25.4375 3.875 C31.5438489 1.61010712 39.24427784 2.56896025 45.69995117 2.52490234 C47.48165932 2.50831621 49.26330021 2.48099111 51.04467773 2.44287109 C53.62258155 2.38805757 56.19893551 2.36622762 58.77734375 2.3515625 C59.9666172 2.31755844 59.9666172 2.31755844 61.17991638 2.28286743 C65.42509439 2.29905326 66.99414464 2.53311419 70.47875977 5.22021484 C72.4375 7.875 72.4375 7.875 72.4375 10.875 C73.0975 10.875 73.7575 10.875 74.4375 10.875 C74.4375 11.865 74.4375 12.855 74.4375 13.875 C77.4075 13.875 80.3775 13.875 83.4375 13.875 C83.4375 14.535 83.4375 15.195 83.4375 15.875 C84.0975 15.875 84.7575 15.875 85.4375 15.875 C85.4375 16.535 85.4375 17.195 85.4375 17.875 C86.0975 18.205 86.7575 18.535 87.4375 18.875 C87.35047874 21.14655498 87.24230478 23.41730743 87.125 25.6875 C87.06699219 26.95207031 87.00898438 28.21664062 86.94921875 29.51953125 C86.4375 32.875 86.4375 32.875 85.08203125 34.76171875 C81.35318755 37.28599537 77.78314236 36.95699325 73.4375 36.875 C73.375625 37.596875 73.31375 38.31875 73.25 39.0625 C72.1515129 42.86495534 70.54317268 44.45947681 67.4375 46.875 C64.26171875 47.01171875 64.26171875 47.01171875 61.4375 46.875 C61.56769531 48.11636719 61.69789063 49.35773438 61.83203125 50.63671875 C61.9727576 52.27852614 62.11200289 53.92046096 62.25 55.5625 C62.33958984 56.37912109 62.42917969 57.19574219 62.52148438 58.03710938 C62.84275055 62.21356965 62.81020888 64.2663203 60.57421875 67.91796875 C56.15404512 70.67576076 52.54956374 70.61113182 47.4375 70.5 C46.10332031 70.52900391 46.10332031 70.52900391 44.7421875 70.55859375 C40.31402899 70.52554779 38.03536861 70.28277323 34.3046875 67.73828125 C32.00188452 64.20699551 32.02621748 62.57662599 32.5625 58.4375 C32.68882812 57.34566406 32.81515625 56.25382812 32.9453125 55.12890625 C33.41276303 52.03853885 33.90785572 48.95529961 34.4375 45.875 C32.6121875 46.0296875 32.6121875 46.0296875 30.75 46.1875 C26.99458858 46.2272398 26.6363691 46.06030984 23.6875 43.3125 C22.57375 42.1059375 22.57375 42.1059375 21.4375 40.875 C18.48366749 41.21738551 16.19967518 42.4292341 13.65234375 43.90625 C12.95689453 44.30457031 12.26144531 44.70289063 11.54492188 45.11328125 C10.82884766 45.52964844 10.11277344 45.94601563 9.375 46.375 C7.94798572 47.20029206 6.51964982 48.02330418 5.08984375 48.84375 C4.46070068 49.20919922 3.83155762 49.57464844 3.18334961 49.95117188 C-0.77224024 52.04429899 -4.15312878 52.18995509 -8.5625 51.875 C-10.6875238 50.31517478 -11.45541418 49.40691396 -11.97900391 46.80615234 C-11.99882324 46.03223145 -12.01864258 45.25831055 -12.0390625 44.4609375 C-12.07 43.61789063 -12.1009375 42.77484375 -12.1328125 41.90625 C-12.15085938 41.0296875 -12.16890625 40.153125 -12.1875 39.25 C-12.23829607 37.5076947 -12.29278153 35.76549169 -12.3515625 34.0234375 C-12.36912598 33.25177246 -12.38668945 32.48010742 -12.40478516 31.68505859 C-12.36883412 29.85431309 -12.36883412 29.85431309 -13.5625 28.875 C-13.81542226 25.48669191 -13.74773407 22.08412276 -13.75 18.6875 C-13.76224609 17.74068359 -13.77449219 16.79386719 -13.78710938 15.81835938 C-13.8007032 9.32504116 -13.67510738 4.20428506 -9.125 -0.8125 C-4.82165102 -2.39794436 -4.04082816 -1.84614656 0 0 Z " fill="#E6884E" transform="translate(200.5625,137.125)"/>
<path d="M0 0 C5.94 0 11.88 0 18 0 C18.00410889 1.67618408 18.00821777 3.35236816 18.01245117 5.0793457 C18.03218795 10.74318661 18.07501894 16.40657063 18.13209057 22.07015705 C18.16576428 25.48964269 18.19137396 28.90871017 18.19555664 32.32836914 C18.23839447 50.1917428 19.67621719 66.94293559 23.46302795 84.41127014 C24.12437801 87.59962352 24.59721882 90.76960809 25 94 C25.15275391 95.21236328 25.15275391 95.21236328 25.30859375 96.44921875 C25.61617859 101.79001005 24.66960073 105.0659506 22.0625 109.75 C18.39300965 116.38098491 18.02212214 122.52271624 18 130 C17.67 130 17.34 130 17 130 C17 128.35 17 126.7 17 125 C8.75 125 0.5 125 -8 125 C-8.13593313 111.67855359 -7.29441663 98.76156097 -5.625 85.5625 C-5.51115967 84.64605713 -5.39731934 83.72961426 -5.2800293 82.78540039 C-4.75660873 78.80719457 -4.22553135 74.90441242 -3.25366211 71.00708008 C-0.01528157 57.74110822 -0.43682613 44.19776366 -0.33044434 30.61987305 C-0.30026627 27.15986594 -0.25386798 23.70007642 -0.20898438 20.24023438 C-0.12377759 13.49360086 -0.05757902 6.74692544 0 0 Z " fill="#954F30" transform="translate(239,207)"/>
<path d="M0 0 C8.58 0 17.16 0 26 0 C26.53625 2.454375 27.0725 4.90875 27.625 7.4375 C29.06084036 13.57431899 30.89842046 18.35985593 34.828125 23.3984375 C36 25 36 25 36 27 C37.32 27.33 38.64 27.66 40 28 C40 28.66 40 29.32 40 30 C34.94550224 29.98058305 29.89274644 29.92887964 24.83886719 29.84741211 C23.12021378 29.82423525 21.4014184 29.80983709 19.68261719 29.80444336 C17.20938691 29.79515088 14.73838828 29.75415945 12.265625 29.70703125 C11.11540863 29.71293022 11.11540863 29.71293022 9.94195557 29.71894836 C6.04669996 29.61274333 4.36812046 29.36288357 1.54589844 26.58081055 C-0.59358989 23.00902737 -1.1368991 21.20933581 -1.125 17.0625 C-1.12757813 16.18722656 -1.13015625 15.31195313 -1.1328125 14.41015625 C-0.94530407 9.59560155 -0.43621976 4.79841731 0 0 Z " fill="#E5874A" transform="translate(230,332)"/>
<path d="M0 0 C0.66 0 1.32 0 2 0 C4.88604599 9.67549333 7.37132497 19.39670241 9.60986328 29.24072266 C10.12486082 31.49938959 10.65000775 33.75553908 11.17578125 36.01171875 C13.03841654 44.10438066 14.57549431 52.11000056 15.60107422 60.35742188 C15.85643163 62.97010702 15.85643163 62.97010702 17 65 C22.94 65.33 28.88 65.66 35 66 C35 66.33 35 66.66 35 67 C29.82218777 67.02477057 24.64441025 67.04289347 19.46655273 67.05493164 C17.70612995 67.0599517 15.94571132 67.0667691 14.18530273 67.07543945 C11.65086846 67.08760703 9.11648946 67.09325166 6.58203125 67.09765625 C5.79850784 67.10281754 5.01498444 67.10797882 4.2077179 67.11329651 C0.25115698 67.11370014 -3.08228396 66.78354321 -7 66 C-7 61.71 -7 57.42 -7 53 C-4.69 53 -2.38 53 0 53 C-6.10059842 41.70931584 -12.25593989 30.45443578 -18.625 19.3125 C-19.13321289 18.42280518 -19.64142578 17.53311035 -20.16503906 16.61645508 C-22.04061884 13.34821589 -23.90885764 10.13671354 -26 7 C-26 6.01 -26 5.02 -26 4 C-25.01 3.67 -24.02 3.34 -23 3 C-16.00711605 14.39778794 -9.28869169 25.92746804 -2.8125 37.625 C-2.31265091 38.52770126 -2.31265091 38.52770126 -1.80270386 39.44863892 C3.68013289 49.36026578 3.68013289 49.36026578 5 52 C7.52733235 52.65555119 7.52733235 52.65555119 10 53 C9.08034872 48.76347828 8.15882208 44.52736971 7.2355957 40.29162598 C6.91277045 38.8096974 6.59033981 37.32768281 6.26831055 35.84558105 C4.16860262 26.18596581 1.99446408 16.55912651 -0.46875 6.984375 C-0.97045539 4.16597121 -0.99485191 2.64421165 0 0 Z " fill="#E38708" transform="translate(178,253)"/>
<path d="M0 0 C0.99 0.33 1.98 0.66 3 1 C3.33 1.99 3.66 2.98 4 4 C4.85591783 3.74905956 4.85591783 3.74905956 5.72912693 3.49304962 C8.07403074 2.98392652 9.94491072 2.9654891 12.33396912 3.11120605 C13.6115199 3.18163494 13.6115199 3.18163494 14.9148798 3.25348663 C16.29590712 3.33587208 16.29590712 3.33587208 17.70483398 3.41992188 C28.95040072 4.00892286 40.17427865 4.18940173 51.43361092 4.26036072 C54.81828645 4.28185736 58.20288336 4.30881567 61.58750916 4.33703613 C69.96782318 4.40592008 78.34819194 4.46648615 86.72857666 4.52606201 C93.87086887 4.57703171 101.01311121 4.63176994 108.15533257 4.69187927 C111.48399746 4.71834327 114.81266763 4.73919962 118.14137268 4.7598877 C120.17245723 4.7764834 122.20353955 4.79335459 124.23461914 4.81054688 C125.6145253 4.8168235 125.6145253 4.8168235 127.02230835 4.82322693 C131.13911571 4.86363058 134.98564872 4.96296763 139 6 C139 6.33 139 6.66 139 7 C121.72813903 7.17727183 104.45621112 7.34294245 87.18410873 7.49477577 C79.16450499 7.5655444 71.14497027 7.64011917 63.12548828 7.72363281 C56.13629476 7.79640756 49.14707698 7.86206279 42.15773702 7.91914403 C38.45640784 7.94962174 34.75518931 7.98368101 31.05397797 8.02626419 C26.92372585 8.07365025 22.7935001 8.10514163 18.66308594 8.13525391 C17.43381882 8.1517952 16.2045517 8.16833649 14.93803406 8.18537903 C13.25116234 8.19387627 13.25116234 8.19387627 11.5302124 8.20254517 C10.06456156 8.21637206 10.06456156 8.21637206 8.56930161 8.23047829 C5.90502617 7.99148041 4.27942962 7.36038819 2 6 C2 5.34 2 4.68 2 4 C1.34 4 0.68 4 0 4 C0 2.68 0 1.36 0 0 Z " fill="#DA890D" transform="translate(134,364)"/>
<path d="M0 0 C4.96107581 2.80408632 7.90409627 7.47278668 9.58984375 12.8984375 C11.20158136 21.15667402 10.06390388 28.64985286 6 36 C0.78305267 43.48175599 -7.22633328 46.61800803 -15.95581055 48.33740234 C-17.85015405 48.67206892 -19.75124282 48.96785772 -21.65234375 49.26171875 C-25.01904478 50.00420007 -27.13694232 51.14080512 -30 53 C-30.66 53 -31.32 53 -32 53 C-32.4640625 53.928125 -32.4640625 53.928125 -32.9375 54.875 C-33.625 56.25 -34.3125 57.625 -35 59 C-35.66 59 -36.32 59 -37 59 C-35.87295022 54.21003845 -33.1955531 52.16739558 -29.39355469 49.39990234 C-25.30608367 47.00929047 -20.98765137 46.23987213 -16.375 45.375 C-6.97942889 43.54881857 -0.7586232 41.15804954 5 33 C7.88351128 25.99718689 8.20719869 17.75954098 5.75 10.5625 C4.11956248 7.24339505 2.89017017 5.25794545 0 3 C-4.70039892 1.43320036 -8.40034171 1.25122378 -12.9375 3.375 C-15.66019311 6.84024578 -15.70401422 9.26338613 -15.5 13.5859375 C-14.74686674 17.22215902 -12.9229841 18.84255936 -10 21 C-9.34 21.33 -8.68 21.66 -8 22 C-8 22.66 -8 23.32 -8 24 C-11.93958348 22.87440472 -14.51834612 21.10316177 -17.05078125 17.84375 C-18.86103582 14.32753536 -18.64302547 10.82282177 -18 7 C-16.71389171 3.88626415 -15.41116559 2.3737869 -12.9375 0.125 C-8.49088802 -1.57795778 -4.58262366 -1.09650236 0 0 Z " fill="#60402D" transform="translate(317,232)"/>
<path d="M0 0 C0.66 0 1.32 0 2 0 C4.86288437 9.62369592 7.36636462 19.2902956 9.60986328 29.07592773 C10.12263341 31.30222497 10.64899984 33.52502931 11.17578125 35.74804688 C13.50929583 45.78331928 15.00264788 55.74764044 16 66 C15.34 66 14.68 66 14 66 C13.72736328 64.87464844 13.72736328 64.87464844 13.44921875 63.7265625 C13.07216797 62.19128906 13.07216797 62.19128906 12.6875 60.625 C12.32205078 59.12839844 12.32205078 59.12839844 11.94921875 57.6015625 C11.21872354 54.82988931 10.42841977 52.11104129 9.58422852 49.37402344 C8.09453299 44.42554159 6.84959446 39.45178272 5.703125 34.4140625 C5.40628815 33.11775406 5.40628815 33.11775406 5.10345459 31.79525757 C4.69157072 29.98910247 4.28161346 28.182507 3.87353516 26.37548828 C3.24633914 23.60885151 2.60573161 20.84552406 1.96484375 18.08203125 C1.56427929 16.31789543 1.16451084 14.55357863 0.765625 12.7890625 C0.57301086 11.96612701 0.38039673 11.14319153 0.1819458 10.2953186 C0.01136658 9.52706757 -0.15921265 8.75881653 -0.33496094 7.96728516 C-0.48801697 7.29573395 -0.641073 6.62418274 -0.79876709 5.93228149 C-1.02852984 3.72605033 -0.65109334 2.10638564 0 0 Z " fill="#783D23" transform="translate(178,253)"/>
<path d="M0 0 C2.21671569 2.07042282 3.77680542 4.07966797 5.27734375 6.7109375 C5.70305664 7.45118164 6.12876953 8.19142578 6.56738281 8.95410156 C7.24559082 10.15244629 7.24559082 10.15244629 7.9375 11.375 C8.90971935 13.0861858 9.88239305 14.79711352 10.85546875 16.5078125 C11.36384277 17.40274414 11.8722168 18.29767578 12.39599609 19.21972656 C14.03629601 22.06291308 15.72448972 24.87262875 17.42578125 27.6796875 C18.25831421 29.07501709 18.25831421 29.07501709 19.10766602 30.49853516 C20.18362825 32.30113578 21.27352007 34.09551121 22.37866211 35.88037109 C26.43493025 42.75696615 26.43493025 42.75696615 25.828125 47.109375 C25.55484375 48.06328125 25.2815625 49.0171875 25 50 C22.65691944 47.01789747 20.76446236 43.94773828 18.92578125 40.6328125 C18.3440918 39.58818848 17.76240234 38.54356445 17.16308594 37.46728516 C16.55239258 36.36433105 15.94169922 35.26137695 15.3125 34.125 C14.05380595 31.86434914 12.79469379 29.60393102 11.53515625 27.34375 C10.62467529 25.70792969 10.62467529 25.70792969 9.69580078 24.0390625 C7.56655399 20.22321683 5.417805 16.41905232 3.25 12.625 C2.65703125 11.58601563 2.0640625 10.54703125 1.453125 9.4765625 C0.36097514 7.61521032 -0.80289796 5.79565306 -2 4 C-2 3.01 -2 2.02 -2 1 C-1.34 0.67 -0.68 0.34 0 0 Z " fill="#DB8A13" transform="translate(154,256)"/>
<path d="M0 0 C2.475 0.495 2.475 0.495 5 1 C3.48333971 5.00591056 1.6417459 8.75273628 -0.3359375 12.55078125 C-0.65656158 13.16841843 -0.97718567 13.7860556 -1.30752563 14.42240906 C-2.32782193 16.38692326 -3.35126419 18.34977633 -4.375 20.3125 C-5.71708479 22.89143938 -7.05791118 25.4710315 -8.3984375 28.05078125 C-8.71729919 28.66390167 -9.03616089 29.27702209 -9.36468506 29.90872192 C-11.62024502 34.25152862 -13.83158148 38.61312253 -16 43 C-17.32 42.34 -18.64 41.68 -20 41 C-18.48421646 35.9217759 -16.30762867 31.43375958 -13.8671875 26.7578125 C-13.47048859 25.98944061 -13.07378967 25.22106873 -12.66506958 24.42941284 C-11.40575293 21.99249294 -10.140479 19.55872453 -8.875 17.125 C-8.01653086 15.46635084 -7.15845374 13.80749874 -6.30078125 12.1484375 C-4.20505068 8.09659524 -2.10397429 4.04756729 0 0 Z " fill="#DC8E1B" transform="translate(229,261)"/>
<path d="M0 0 C0.28875 0.639375 0.5775 1.27875 0.875 1.9375 C1.82823451 4.15206079 1.82823451 4.15206079 4 5 C7.72167719 15.35091468 8.9872422 26.11285367 10 37 C9.34 37 8.68 37 8 37 C7.81824219 36.24976563 7.63648438 35.49953125 7.44921875 34.7265625 C6.22362253 29.73618609 4.96873791 24.78121125 3.4375 19.875 C1.43433392 13.32780982 -0.15821935 6.87645652 0 0 Z " fill="#683311" transform="translate(184,282)"/>
<path d="M0 0 C1.65443767 2.89723906 2.23795121 4.89038082 2.13525391 8.21777344 C2.11508209 9.03832214 2.09491028 9.85887085 2.0741272 10.70428467 C2.04193085 11.58046448 2.0097345 12.45664429 1.9765625 13.359375 C1.95153656 14.26375305 1.92651062 15.1681311 1.90072632 16.09991455 C1.81866533 18.98366552 1.722022 21.86671739 1.625 24.75 C1.56674624 26.70700285 1.50944326 28.66403425 1.453125 30.62109375 C1.31310714 35.41446337 1.16001105 40.20725781 1 45 C0.67 45 0.34 45 0 45 C-0.02505615 44.42967041 -0.0501123 43.85934082 -0.07592773 43.27172852 C-0.19156549 40.70173843 -0.31443624 38.13214473 -0.4375 35.5625 C-0.47681641 34.66466797 -0.51613281 33.76683594 -0.55664062 32.84179688 C-0.59853516 31.98779297 -0.64042969 31.13378906 -0.68359375 30.25390625 C-0.72025146 29.46314697 -0.75690918 28.6723877 -0.79467773 27.85766602 C-0.80563257 25.98598559 -0.80563257 25.98598559 -2 25 C-2.25194063 21.56979659 -2.18522745 18.12586089 -2.1875 14.6875 C-2.20586914 13.24213867 -2.20586914 13.24213867 -2.22460938 11.76757812 C-2.22654297 10.83751953 -2.22847656 9.90746094 -2.23046875 8.94921875 C-2.23457764 8.09674561 -2.23868652 7.24427246 -2.24291992 6.3659668 C-1.98180606 3.82279653 -1.27889646 2.19379688 0 0 Z " fill="#DD7A59" transform="translate(189,141)"/>
<path d="M0 0 C0.66 0.33 1.32 0.66 2 1 C1.23558594 1.69222656 0.47117188 2.38445312 -0.31640625 3.09765625 C-8.61246736 10.65847403 -16.59990387 18.48929159 -24.48876953 26.47290039 C-25.98732062 27.98718747 -27.49229437 29.49483259 -29 31 C-28.34 29.02 -27.68 27.04 -27 25 C-26.34 25 -25.68 25 -25 25 C-25 24.34 -25 23.68 -25 23 C-24.34 23 -23.68 23 -23 23 C-22.78085938 22.29230469 -22.56171875 21.58460938 -22.3359375 20.85546875 C-20.69343291 17.34473525 -18.37096994 14.96814198 -15.625 12.3125 C-14.90183594 11.58450195 -14.90183594 11.58450195 -14.1640625 10.84179688 C-11.60278232 8.3187967 -9.27500322 6.46513302 -6 5 C-4.64691687 3.68671343 -3.31129922 2.35500919 -2 1 C-1.34 0.67 -0.68 0.34 0 0 Z " fill="#EEDFD0" transform="translate(181,171)"/>
<path d="M0 0 C0.66 0.33 1.32 0.66 2 1 C-4.1038635 5.77693665 -10.08810553 7.17573939 -17.56396484 8.56738281 C-21.9925311 9.41855834 -25.18818293 10.45878862 -29 13 C-29.66 13 -30.32 13 -31 13 C-31.309375 13.61875 -31.61875 14.2375 -31.9375 14.875 C-32.625 16.25 -33.3125 17.625 -34 19 C-34.66 19 -35.32 19 -36 19 C-34.87329419 14.21150033 -32.19879209 12.17071695 -28.39794922 9.40429688 C-24.29015812 6.99867537 -19.94700411 6.20009761 -15.3125 5.3125 C-7.27152741 3.69395687 -7.27152741 3.69395687 0 0 Z " fill="#5A3523" transform="translate(316,272)"/>
<path d="M0 0 C0.33 0 0.66 0 1 0 C1.67076489 2.76989964 2.33676317 5.54079742 3 8.3125 C3.19078125 9.09818359 3.3815625 9.88386719 3.578125 10.69335938 C3.75859375 11.45068359 3.9390625 12.20800781 4.125 12.98828125 C4.29257813 13.68477783 4.46015625 14.38127441 4.6328125 15.09887695 C5 17 5 17 5 20 C2 19 2 19 0 17 C-0.703125 14.35546875 -0.703125 14.35546875 -1.25 11.1875 C-1.44078125 10.14980469 -1.6315625 9.11210937 -1.828125 8.04296875 C-2.01375583 4.75645928 -1.44660802 2.920205 0 0 Z " fill="#723820" transform="translate(183,267)"/>
<path d="M0 0 C0.66 0 1.32 0 2 0 C2.33 2.97 2.66 5.94 3 9 C1.35 9 -0.3 9 -2 9 C-3.32 6.36 -4.64 3.72 -6 1 C-5.34 1 -4.68 1 -4 1 C-3.34 1.99 -2.68 2.98 -2 4 C-1.34 2.68 -0.68 1.36 0 0 Z " fill="#F3D9B3" transform="translate(185,297)"/>
<path d="M0 0 C0.33 0 0.66 0 1 0 C1.06058594 0.69867188 1.12117187 1.39734375 1.18359375 2.1171875 C1.26738281 3.02726562 1.35117188 3.93734375 1.4375 4.875 C1.51871094 5.77992188 1.59992188 6.68484375 1.68359375 7.6171875 C1.86989285 10.01110861 1.86989285 10.01110861 3 12 C10.26 12.33 17.52 12.66 25 13 C25 13.33 25 13.66 25 14 C16.75 14 8.5 14 0 14 C0 9.38 0 4.76 0 0 Z " fill="#BC6839" transform="translate(231,318)"/>
<path d="M0 0 C0.89203125 0.00902344 1.7840625 0.01804688 2.703125 0.02734375 C3.37859375 0.03894531 4.0540625 0.05054688 4.75 0.0625 C4.75 0.3925 4.75 0.7225 4.75 1.0625 C2.44 1.7225 0.13 2.3825 -2.25 3.0625 C-2.25 3.3925 -2.25 3.7225 -2.25 4.0625 C-3.19875 4.35125 -4.1475 4.64 -5.125 4.9375 C-8.30211578 5.83075109 -8.30211578 5.83075109 -10.25 8.0625 C-10.0025 7.1653125 -10.0025 7.1653125 -9.75 6.25 C-9.1385876 3.94905664 -9.1385876 3.94905664 -9.25 1.0625 C-6.09493858 0.12630187 -3.28413498 -0.0432123 0 0 Z " fill="#E57142" transform="translate(235.25,139.9375)"/>
<path d="M0 0 C0.99 0.33 1.98 0.66 3 1 C3.33 1.99 3.66 2.98 4 4 C4.804375 3.690625 4.804375 3.690625 5.625 3.375 C8.83267308 2.8685253 11.01317066 3.84599775 14 5 C14 5.33 14 5.66 14 6 C10.37 6.33 6.74 6.66 3 7 C2.67 6.01 2.34 5.02 2 4 C1.34 4 0.68 4 0 4 C0 2.68 0 1.36 0 0 Z " fill="#D28D18" transform="translate(134,364)"/>
<path d="M0 0 C2.04219706 1.69179328 2.91793306 2.63727666 3.51171875 5.26171875 C3.56972656 6.06222656 3.62773437 6.86273438 3.6875 7.6875 C3.75324219 8.49574219 3.81898438 9.30398438 3.88671875 10.13671875 C3.92410156 10.75160156 3.96148437 11.36648438 4 12 C-2 4.6 -2 4.6 -2 1 C-1.34 0.67 -0.68 0.34 0 0 Z " fill="#D17E12" transform="translate(154,256)"/>
<path d="M0 0 C0.33 0.99 0.66 1.98 1 3 C1.66 3.33 2.32 3.66 3 4 C4.91479324 8.61803076 5.49026224 13.07253501 6 18 C5.34 18 4.68 18 4 18 C3.67 15.03 3.34 12.06 3 9 C2.34 9 1.68 9 1 9 C0.67 6.03 0.34 3.06 0 0 Z " fill="#E6D2BA" transform="translate(360,225)"/>
<path d="M0 0 C0.28875 0.639375 0.5775 1.27875 0.875 1.9375 C1.82823451 4.15206079 1.82823451 4.15206079 4 5 C4.59355614 7.64860427 4.74209269 10.29197322 5 13 C4.01 13 3.02 13 2 13 C-0.28571429 4.57142857 -0.28571429 4.57142857 0 0 Z " fill="#6A2A14" transform="translate(184,282)"/>
<path d="M0 0 C1.32 0 2.64 0 4 0 C4.33 2.31 4.66 4.62 5 7 C3.02 7.99 3.02 7.99 1 9 C0.67 6.03 0.34 3.06 0 0 Z " fill="#EEA331" transform="translate(175,246)"/>
<path d="M0 0 C0.66 0 1.32 0 2 0 C1.34 3.63 0.68 7.26 0 11 C-0.66 11 -1.32 11 -2 11 C-2.33 12.32 -2.66 13.64 -3 15 C-4.31223496 11.06329512 -3.24296256 8.87511856 -2 5 C-1.34 5 -0.68 5 0 5 C-0.33 4.01 -0.66 3.02 -1 2 C-0.67 1.34 -0.34 0.68 0 0 Z " fill="#EEDED5" transform="translate(136,230)"/>
<path d="M0 0 C0.99 0 1.98 0 3 0 C3.625 3.375 3.625 3.375 4 7 C3.34 7.66 2.68 8.32 2 9 C1.34 9 0.68 9 0 9 C-1.125 2.25 -1.125 2.25 0 0 Z " fill="#793B1E" transform="translate(187,293)"/>
<path d="M0 0 C1.32 0.33 2.64 0.66 4 1 C4.80967438 3.91482778 5.21845993 5.46113217 4.0625 8.3125 C3.5365625 9.1478125 3.5365625 9.1478125 3 10 C0.96564469 6.27034861 0 4.33094958 0 0 Z " fill="#D6820C" transform="translate(175,296)"/>
<path d="M0 0 C2.12046792 3.53411321 2.53199289 6.94393835 3 11 C0 10 0 10 -2 8 C-1.69347955 5.0574037 -1.32728846 2.65457692 0 0 Z " fill="#7B432A" transform="translate(185,276)"/>
<path d="M0 0 C1.65 0.33 3.3 0.66 5 1 C4.34 2.65 3.68 4.3 3 6 C1.68 6 0.36 6 -1 6 C-0.67 4.02 -0.34 2.04 0 0 Z " fill="#D28912" transform="translate(229,261)"/>
<path d="M0 0 C0.66 0 1.32 0 2 0 C3.38125018 2.76250036 3.19079306 4.94731099 3 8 C2.34 8.66 1.68 9.32 1 10 C0.63883954 8.5225254 0.28624952 7.04295325 -0.0625 5.5625 C-0.25972656 4.73878906 -0.45695313 3.91507812 -0.66015625 3.06640625 C-0.82837891 2.04353516 -0.82837891 2.04353516 -1 1 C-0.67 0.67 -0.34 0.34 0 0 Z " fill="#6D3011" transform="translate(178,253)"/>
<path d="M0 0 C0.66 0.33 1.32 0.66 2 1 C1.67 1.99 1.34 2.98 1 4 C-2.63 3.34 -6.26 2.68 -10 2 C-6.33134759 -0.44576827 -4.32799657 -0.23607254 0 0 Z " fill="#D77C48" transform="translate(284,152)"/>
<path d="M0 0 C1.0165376 3.63049144 1.65238379 7.24574497 2 11 C1.34 11.66 0.68 12.32 0 13 C-1.49084832 8.52745503 -1.49084832 4.47254497 0 0 Z " fill="#F2E1D2" transform="translate(368,252)"/>
<path d="M0 0 C1.62418745 -0.08090971 3.24951745 -0.13914995 4.875 -0.1875 C5.77992188 -0.22230469 6.68484375 -0.25710937 7.6171875 -0.29296875 C8.79667969 -0.14794922 8.79667969 -0.14794922 10 0 C10.66 0.99 11.32 1.98 12 3 C9.69 3 7.38 3 5 3 C5 2.67 5 2.34 5 2 C3.35 1.67 1.7 1.34 0 1 C0 0.67 0 0.34 0 0 Z " fill="#E94E3F" transform="translate(258,140)"/>
<path d="M0 0 C0.33 0 0.66 0 1 0 C1 2.31 1 4.62 1 7 C-0.98 7.99 -2.96 8.98 -5 10 C-5.33 9.34 -5.66 8.68 -6 8 C-4.7934375 7.4121875 -4.7934375 7.4121875 -3.5625 6.8125 C-0.76935262 5.23051809 -0.76935262 5.23051809 -0.1875 2.3125 C-0.125625 1.549375 -0.06375 0.78625 0 0 Z " fill="#E5C8A8" transform="translate(279,292)"/>
<path d="M0 0 C0.96706319 3.00864103 1.27677226 5.05360248 0 8 C-2.0625 9.25 -2.0625 9.25 -4 10 C-2.8905928 6.51329166 -1.73662334 3.22515763 0 0 Z " fill="#F6D498" transform="translate(227,274)"/>
<path d="M0 0 C0.66 0 1.32 0 2 0 C2 0.66 2 1.32 2 2 C2.99 2.33 3.98 2.66 5 3 C5 3.33 5 3.66 5 4 C2.69 4 0.38 4 -2 4 C-1.34 2.68 -0.68 1.36 0 0 Z " fill="#ECD3B2" transform="translate(264,357)"/>
<path d="M0 0 C0.33 0 0.66 0 1 0 C1.16852247 1.60397277 1.33474886 3.2081869 1.5 4.8125 C1.5928125 5.70582031 1.685625 6.59914063 1.78125 7.51953125 C2 10 2 10 2 13 C1.34 13 0.68 13 0 13 C0 8.71 0 4.42 0 0 Z " fill="#A56444" transform="translate(231,318)"/>
<path d="M0 0 C0.66 0.33 1.32 0.66 2 1 C1.67 3.64 1.34 6.28 1 9 C-1 7 -1 7 -1.1875 3.9375 C-1 1 -1 1 0 0 Z " fill="#F3E1D2" transform="translate(368,282)"/>
<path d="M0 0 C0.8125 1.6875 0.8125 1.6875 1 4 C-1.4375 6.75 -1.4375 6.75 -4 9 C-2.94124926 5.59687262 -1.99097846 2.98646769 0 0 Z " fill="#F8DAA1" transform="translate(233,264)"/>
<path d="M0 0 C0.99 0.33 1.98 0.66 3 1 C2.67 2.32 2.34 3.64 2 5 C0.68 4.67 -0.64 4.34 -2 4 C-2 3.01 -2 2.02 -2 1 C-1.34 0.67 -0.68 0.34 0 0 Z " fill="#D66C45" transform="translate(195,135)"/>
<path d="" fill="#FFFFFF" transform="translate(0,0)"/>
</svg>
